<svg id="Layer_1_copy" data-name="Layer 1 copy" xmlns="http://www.w3.org/2000/svg" viewBox="0 0 938.66 644.59">
  <title>sophiaview</title><g id="PQpv16.tif">
  <path d="M347.26,610.05q-173,0-346.09.07c-2.93,0-3.61-.65-3.59-3.59.14-21,.07-42,.07-63a5.31,5.31,0,0,1,1.28.86c5.59,6.72,13.21,11.21,19.28,17.42,2.09,2.14,7.28,1.9,8.06-.11,2.17-5.6,4-11.22.85-17.23-2.42-4.58-4.42-9.3-8.94-12.45a16.06,16.06,0,0,1-4.67-5.65A29.2,29.2,0,0,0-2.35,512.29V215.08c1.28-.79,2-3.58,3.87-2,1.4,1.15,2.07.47,3,0a52.33,52.33,0,0,0,5.67-3.42c2.74-2,5.46-2.21,8.81-1.51,3.87.81,6.76,3.49,10.58,4.35,6.31,1.42,11.26,4.43,11.43,12,0,2.39,2.27,4,3.45,6,1.33,2.28,2.11,4.63,1.08,7-1.16,2.68-.22,3.83,2,5.26,5.41,3.4,5.41,3.87,3.3,10.34a2.79,2.79,0,0,1-.14.37,4.51,4.51,0,0,0,1.34,5.95c2.32,1.88,3.54,4,3.29,7-.13,1.62.83,2.63,2.37,3.17,2.73.95,2.88,2.89,2.14,5.36-.83,2.77-2.73,4.18-5.26,5.31C39.69,287,31.94,302.8,36,318.17c.23.84.32,1.6-.38,2.12C33.36,322,33,324.55,33,326.94c-.13,3.43-.07,6.59-4.52,7.27-.56.08-1,1.11-1.44,1.73-2.92,4.06-3.65,4.08-6.68.29-.19-.25-.62-.31-1.43-.67-.34,4.61.08,8.78,2,12.67,1.5,3,3.92,3.69,6.74,1.74a162.69,162.69,0,0,0,14.44-11.52,7.58,7.58,0,0,0,2.69-6.58,96.58,96.58,0,0,1,.49-15.21c.41-4.21,1.9-7.93,5.06-10.68,4-3.47,8-7,13.25-8.66a19.6,19.6,0,0,0,6.86-3.65c4.23-3.63,5.2-8.44,2.67-12.92-1.13-2-3.28-3.29-3.82-5.77-.23-1-1.32-1.14-2.2-.33s-1.53,1.07-2.18-.13-.09-1.77.91-2.13c1.65-.58,1.4-1.59.73-2.75-2.94-5.08-3.84-11.31-8.75-15.26-.9-.73-.12-1.57-.12-2.36,0-2.61.93-6.52-1.3-7.53-3.79-1.72-.79-2.44,0-3.27.59-.62,2.25-.17,2-1.79-.22-1.28-1.42-1.27-2.35-1.7-2.12-1-4.85-1.55-3.28-5.08.65-1.45-.32-2.58-1.43-3.69-3.41-3.41-7.32-6.43-7.07-12.19.12-2.64-1.88-4.56-4.49-5.82-4.11-2-7.64-5.39-12.74-4.66a1.82,1.82,0,0,1-1.47-.36c-3.66-4.93-9.6-2.15-14.95-5,3.75,3.88.74,3.94-1.13,4.5A9.52,9.52,0,0,0,5,207.72c-1.74,1.72-3.75,1.84-4.76-1.06a6.64,6.64,0,0,0-2.62-3.31V-34.41c11.71,0,23.42.16,35.13.06,2.18,0,4.2,1.79,6,1.09,5.78-2.26,11.61-.54,17.4-.79a2.35,2.35,0,0,1,1.69.81c2,2.77,5.1,2.51,8,3,4.26.76,7.65-2.23,11.75-2.27,1.46,0,3.24.94,4.73-.17-.33-1.45-1.5-1-2.32-1.33,2.31-.27,4.44-.31,6.12,2.17-2.67.51-5,1.11-7.44,1.39-3.15.36-4.32,2-2.89,4.75,1.52,2.9,1.67,5.94,1.92,9.05.42,5,1.38,9.9,4.26,14.3,1.75-1.2,1.46-2.89,1.79-4.35C84-7.66,84.06-9,85.33-9c1.43,0,1.18,1.51,1.2,2.47.11,4.81,0,9.64.22,14.44.52,10-1.07,20,1.2,30q-.28,20.74-.6,41.46c-2-4.41-3.43-8.72-3-13.51.19-2.33-.87-6-3-5.94-2.36.1-1.42,3.67-1.41,5.73.16,23.18.44,46.37.62,69.55.07,8.6,0,17.2,0,25.8,0,1.44-.06,3.21-2,3.19s-1.36-1.79-1.46-3c-.54-6.51.36-13,.36-19.48,0-18.36-.54-36.72-.9-55.07,0-2.64-.17-2.69-2.35-1.2-.84.57-1.07-.08-1.59-.37-3.16-1.78-4.61-1.11-4.39,2.65a134.49,134.49,0,0,1,0,14.34,12.8,12.8,0,0,0,.88,5.34,13.23,13.23,0,0,1,.24,8.47c-.94,3.08-.81,6.15-1.15,9.23-.37,3.4.94,6.42,1.62,9.55,1.45,6.72-.26,13-1.87,19.4-.23.91-.33,1.88-1.47,2s-1.58-.76-1.93-1.62c-2.9-7.06-7.73-10.27-15.44-7.68.25,1,2.42.61,1.92,2.42-1.81.9-3.8-.52-5.66.25-.74.3-1.57.57-1.79,1.36a1.59,1.59,0,0,0,1,1.94c2.61.55,4.52,3.56,7.72,2.1a2,2,0,0,1,2.81,1c-3.6,1.24-3.86,2.35-.2,4.21,2.28,1.16,5.76,2,4.5,6.44-.44,1.58,2.24,3,4.34,3.08s-.1-2,1.32-2.78c1,2.42,2,2.43,3.59.09,1.24-1.88,3.94-4.24,5.51-1.33s3.4,2.87,5.79,3.14c1.42.15,2.55,1.28,3.82,1.81,2.72,1.13,4,4.61,7.6,4.54-.39-2.66-1.72-5-1.56-7.62.63-10.49.5-21,1-31.51s-.51-21.33-.46-32c0-5.83,1.71-11.74,1.15-17.47-1.15-11.94-1-23.92-1.78-35.85-.29-4.25.12-8.64-1.62-12.73,3.68.27,3.86-2.18,3.83-4.86Q91.36,2.83,91-27.25c0-1.42-.36-2.83-.44-4.24-.06-.92-1-2.14-.19-2.66,1.5-.93,2,1.09,3,1.66s.54,1.91.56,2.93c.47,29.16,1,58.32,1.36,87.49.25,23.3.18,46.6.34,69.91A55.54,55.54,0,0,0,97.47,143l.5-5.88c1.73,14.87,1,29.82,1.64,45.78a49,49,0,0,0,5-12.46c2.51.54,3.67-1.48,5.22-2.76,1-.86,1.77-2.2,3.4-2.13,3.58.15,4.23-4.59,7.7-4.64a12.36,12.36,0,0,0-.1-1.93c-.22-1.24-.54-2.46-.82-3.71-1.32,0-1.54,3.36-3.57,1.09-.59-.66-1.32-2.09-2.46-1.07-1,.89-.46,2.2.09,3.25s1.17,2,1.69,2.83c-4,2.72-8.16,5.17-11,9.18-1.73-5.16-1.54-10.57-1.27-15.8,1.3-25.26,1.48-50.53,1.13-75.8q-.74-54.54-1.83-109.07c-.07-3.48.8-4.47,4.26-4.3,6.25.32,12.52.3,18.77.13,3-.07,4.23.83,4.22,3.92,0,7.15.29,14.31.33,21.47.15,30.47.19,61,.45,91.42,0,4.41.26,8.83.36,13.25,0,1.45.31,3.74,2.2,3.54s2.3-2.45,1.89-4.13c-1.67-7-.87-14-1-21C133.48,39.63,132.87,5.1,132-29.42c-.1-3.77.87-5.07,4.74-5q21.89.3,43.77,0c3.48,0,4.39,1,4.43,4.37.25,22.93.69,45.86,1.07,68.79q.48,28,1,55.9a10.22,10.22,0,0,0,.19,2.72c3.81,12.63,1.26,25.68,2.63,38.47.22,2.06-.64,3.34-3.08,4.16-3.34,1.11-6.31,3.31-9.43,5.06-1,.57-1.33,1.75-.24,2.07,1.61.47,4.43,1,5,.2,2.32-3.35,3.64-1.3,5.53,1.43.51-4.11,1.55-6.26,5.63-4.5,1.91.83,2.87-1.71,3.6-3.26.44-.94.25-2.4-1.13-2.41-3.49,0-3.12-2.26-3.05-4.56.4-12.11,1.14-24.22,1-36.32-.35-41.31-1-82.62-1.57-123.92-.12-8.06-.26-7.85,7.62-8.11,3.71-.13,4.63,1.13,4.59,4.62q-.24,28-.13,55.9c.07,16.55-.51,33.1.72,49.63.12,1.58-.48,3.72,1.94,4.08,1.62.24,3,.48,3.85,2.08a1.68,1.68,0,0,0,1.41.46c.6-.08.7-.64.47-1.2-1.36-3.39,1-1.87,2.15-1.52a31.06,31.06,0,0,1,3.57,1.55c.89.39,1.76.61,2.4-.42a1.92,1.92,0,0,0-.31-2.49c-1.24-1.44-2.81-2.64-4.66-2.57-3.61.14-3.92-1.85-3.87-4.71.14-7.81.1-15.64.1-23.45,0-25.68.07-51.35-.1-77,0-4,1.08-5,5.05-4.92,11.2.31,22.42.26,33.62,0,3.54-.07,4.48,1.15,4.46,4.44-.06,14.58,0,29.17.13,43.75.3,23.93.77,47.86,1.12,71.79,0,1.07.52,2.35-.9,3.4-1.9-1.69-3.77-3.46-5.76-5.09-2.31-1.91-5.76-2.36-7-.06-2.64,5-7.26,7.31-11.22,10.58a4.88,4.88,0,0,0-1.28,1.92c-.5,1.22-.46,2.43,1.14,2.73,3.38.63,1.66,2.09.56,3.36-1.52,1.74-3.68,3-4.24,5.47-2.28-1.38-2.43-4.65-4.23-5.82-2.09-1.36-4.24,2.49-7,1.62a7,7,0,0,0-2.33,0,9.62,9.62,0,0,0-5.09,1.8c-6.92,4.87-8.75,12.64-11.54,19.88a2.88,2.88,0,0,0,1.24-1c2.47-2.78,2.92-6.64,5.17-9.55,2.58-3.35,4.46-3.62,7.86-1.38,3.25,2.14,6.46,4.26,9.6,6.57,5.32,3.94,9,11.33,7.45,17.92-.89,3.74-2.43,7.55-1.28,11.67,1.41-.46,1.83-3.08,2.14-2.24,1,2.56,3.73,1.75,5.14,3.75,1.74,2.47,0,5,1.23,7.35,1.8-2.26,6.32-2,6.59.37.32,3,2.45,2,3.13,1.75,2.11-.84,3.88-.05,5.67.53,7.67,2.48,11,9.06,14.37,15.55.74,1.44-.33,2.29-1.5,3.14a89.48,89.48,0,0,0-8.25,6.52c-2.4,2.22-4,5-2.72,8.57.48-.16.82-.16.93-.32,4.42-6.47,8.78-12.75,17.3-14.66,5.7-1.28,11.48-.52,14.11,4.18,2.53,4.53,6.41,8.49,6.91,14.07.07.78.11,1.92,2,1.81.35-5.4,1.36-11.47-3.14-15.23-5.79-4.84-11.83-10.59-20.75-8.22a1.8,1.8,0,0,1-1.15,0c-.54-.28-1.25-.64-1.44-1.14-.49-1.32.63-.94,1.32-1.07,1-.19,1.17-1,.89-1.79a1.37,1.37,0,0,0-1.9-.87c-2.55,1.1-3.54-.76-4.65-2.35-.81-1.16-1.43-2.45-2.22-3.63-3.63-5.41-9.26-7.15-15.19-8.65-4.93-1.25-10.45-2.24-10.33-9.4,0-1.68-1.87-2.31-3.16-3.21-1.09-.76-2.79-.41-4.17-2.73A127.36,127.36,0,0,1,253,151.67a4.39,4.39,0,0,0-2.2-4.1c-4.17-2.81-8.19-5.87-12.84-7.88-1.56-.67-1.78-1.66-1.31-3.12a10.62,10.62,0,0,0-1.82-9.64c-2.23-3.13-2.82-6.64-3.79-10.1-.87-3.12-1.29-6.39-3.63-8.91,2.81.28,4.31-3.22,6.45-3,5,.61,7.67-.59,8.87-5.81.46-2,1.64-3.7.89-5.83-.42-1.21-.46-2.37.73-3.12s2.25-.06,3.2.68A20.37,20.37,0,0,0,252,94.05c6.94,3,6.9,3,6,10.1-.17,1.3-.29,2.76,1.3,3.31,1.31.45,2.18-.47,2.94-1.43a6.07,6.07,0,0,0,.84-5.93A9.11,9.11,0,0,1,264.92,91c2.4-2.85,9.94-2.64,10.38.56s2.4,5.94,2.52,9.25,2.52,5.12,5.56,5.66,3.9-1.95,4.76-4.18c.45-1.16.31-3,2-3,6.62-.27,10.62-6.72,17.34-7.07,3.13-.17,5.54-.65,6.88,2.92.85,2.27,5.79,4.32,7.94,3.47s2.64-3,1.11-4c-4.63-3-4.23-7.37-3.45-11.41,1.22-6.26,2.35-13,10-15.21,1.86-.54,3.51-1.81,3.17-3.92-.63-3.85,1.58-5.13,4.56-6.45,4.94-2.2,5.52-6.56,1.39-10.08-1.87-1.59-2.91-3.28-2.68-5.69a19.48,19.48,0,0,0-1.2-8.45c-1.94-5.33-1.14-10.54-.26-15.8.75-4.46.23-5.71-4.18-6.56-2.85-.56-3.64-2.13-3.69-4.58-.1-5.08-.23-10.17-.22-15.25,0-9.17,3.49-12,12.54-9.94,2.39.54,4.58,1.1,7.15.41,4.13-1.11,7.79-.48,9.19,4.52a3.77,3.77,0,0,0,2.74,2.59c2.19.59,3.94.08,4.59-2.31,1.24-4.49-4-11.92-8.54-12.41-3.88-.41-7.75-1-11.62-1.51-3.34-.43-4.39-3.21-4.28-5.64.11-2.26,2.78-1,4.25-1.08,5.73-.16,11.47-.07,17.2-.06,17.73,0,35.45.16,53.18,0,3.47,0,5.27,1.12,6.12,4.37,1.2,4.61-1,8-3.73,11.3-2.26,2.72-2.45,5.12.72,7.19,1.52,1,1.81,2.33.93,3.68-1.94,3-1.08,5.36,1.22,7.63,2,2,2.13,3.94.09,6.09-2.29,2.43-1.15,4.91.46,7.06,1.26,1.68,3.74,1.75,4.11-.11,1-5.19,4.8-4.26,8.14-4.27,12.09,0,24.15,1,36.29.19,5.27-.35,11.41-1,15.89,4.31,1.73,2.07,6.09,1.65,7.44-.57,2.34-3.87,5.51-3.22,8.78-3.26,4,0,8.1-.25,12.12,0,7,.46,14-.67,21.05-.35,2.7.12,4,1.33,4.56,4.23,1,5.41.29,10.67-.56,15.92-.5,3.09,1.45,7.2-.95,9.05-4.43,3.4-6.37,7.95-8.45,12.64-.09.21-.41.32-.59.5-2.79,2.83.81,4,1.62,5.85.73,1.67,2.34,2.26,3.8.75,2.28-2.35,3.44-.88,4.19,1.19a24.38,24.38,0,0,1,1.59,6.41c.29,3.83-2.13,4.91-5.66,4.25-5.29-1-7.54-3.72-7.58-8.84A3.5,3.5,0,0,0,524,58.9a6.48,6.48,0,0,1-1.12-7c2.18-5.63-.23-10.76-1-16.08-.84-5.49-6.67-5.42-9.8-8.4-.91-.87-5.59.63-7.26,3.32s-4,5.45-1.14,8.84c.71.85,1.75,2,.81,3.13a4.09,4.09,0,0,1-3.93,1.22,3.62,3.62,0,0,1-2.64-4.25c.54-2.76-.15-5.46.14-8.16.24-2.37-.3-2.9-2.82-2.27s-4.5,3.21-7.3,1.87c-3.47-1.65-7.11-1.31-10.74-1.37-8.7-.14-17.38-.7-26.11-.44-5.88.18-11.76-1-17.75,0-3.2.51-6.95.37-7.95-4.27-.4-1.87-1.07-4.23-3.51-4s-1.56,2.85-2.17,4.41a2.34,2.34,0,0,0-.09.38c-.73,2.88-5,6.7-6.83,5.8-3.1-1.53-3.25-4.44-2.69-7.44a39.26,39.26,0,0,0,.58-11.65,55.12,55.12,0,0,1-.24-13.59c1.08-8-.77-16.1-.72-24.18,0-1.77-1-3.16-2.83-3.11-2.11.06-1.5,2-1.75,3.32-.67,3.49.06,7-.26,10.48-1,10.39.91,20.78-.36,31.16a17,17,0,0,0,.79,8.49c1.7,4.23-.51,7.76-2.73,10.73-1.9,2.54-5,1-7.54,0-1.88-.77-3.32-.11-4.58,1.19a2.88,2.88,0,0,0-.18,3.94c1.41,2,.75,2.56-1.36,3-3.06.66-4.35,2.74-3.51,5.83a6.57,6.57,0,0,1-.28,3.41c-1.31,5.64-.1,7.25,5.13,9.75,2.93,1.4,5,4.31,6.68,7.17.94,1.63.22,3.55-1.43,4.85a41.52,41.52,0,0,0-3.58,3c-1.76,1.75-2.24,3.3.37,5s4.66,3,7.88,1.64a6.24,6.24,0,0,1,6.26,1.28c1.51,1.26,2.78,1,4.19.06l-.09-.12a6,6,0,0,1-1.78,4.91,4.06,4.06,0,0,0-.18,5.4,3.92,3.92,0,0,0,4.59,1.29c2-.62,2.86-1.92,2.51-4.18-.23-1.49,6.07-6.38,7.48-5.58,2,1.16,4.12,3.13,4.15,5.66s.42,4.16,3,5.14c1.62.61.27,1.71-.27,2.46-2,2.78-1.81,6.19-2.7,9.29a1.53,1.53,0,0,0,.9,1.94c.71.27,1.69-.14,1.65-.59-.43-5,3.14-6.77,6.66-8.71.52-.28.67-1.36.87-2.1a5.49,5.49,0,0,1,2.21-3.11c4.22-3.07,11-3,15.06.14a5.22,5.22,0,0,1,2,4.46c0,2-1.73,1.56-2.84,2a13.88,13.88,0,0,0-8,6.87c-3.42,6.18-3.13,14.79-11.26,18-.2.08-.25.48-.44.63-2.55,1.91-4.86,4.65-7.73,5.53-5,1.52-9.68,3.31-13.74,6.64-.87-1.05-.95-2.23-2-3-4.09-3-3.68-5.63,1.12-7.58a14.18,14.18,0,0,1,6.44-1.38c3,.22,5.56-1.24,8.32-2,1-.26,2.07-1,1.73-2.2a2.34,2.34,0,0,0-2.57-2c-2.16.39-4.38,0-6.52,1-2.79,1.18-3.95-.84-3.36-2.91,1.05-3.7.11-7.53,1.3-11.16a4.49,4.49,0,0,0-.88-4.42c-1.54-1.77-.6-2.52,1.05-2.94,2.8-.7,4.72-2.65,6.72-4.52.48-.45,1-1,.7-1.67s-1.05-.78-1.66-.7c-3.33.45-6.92.27-9.65,2.6-2,1.71-3.48,1.88-5.83.41-3.44-2.16-7.49-2-11.36-1.19-1.44.31-3.08,1.39-2.56,3.34s2.19,1.91,3.83,1.43a10.68,10.68,0,0,1,2.25-.54c.93-.06,2.05.09,2.18,1.18.18,1.44-1.16,1.17-1.95,1.15-3.23-.09-6.09,1.15-9.05,2.2-3.22,1.15-4.91,3.71-6.42,6.48-1.19,2.18-.95,4,.87,6,1.2,1.3-.85,1.85-1.69,2.37-1.78,1.1-3.7,2.64-2.93,4.57,1.76,4.39-.32,8.49-.11,12.67.16,3.31-.45,5.31-3.79,6.56-1.53.58-4.09,2.22-2.8,4.32,1.52,2.47,3.31.19,4.85-.84.17-.11.48,0,.71,0,.94,1.87.44,3.92.91,5.85.19-1,0-2.11.23-3.08.95-3.72,1-8.34,5.19-9.86a18.86,18.86,0,0,0,5.94-3.2,6.75,6.75,0,0,1,4.21-1.25c2.36,2.15,5.11-.64,7,.52,3.72,2.22,7.42,4.82,9.84,8.45,2.69,4,5.12,8.41,3.35,13.77,3-4.15,3.09-7.8.77-11.85-2.06-3.61-1.65-4.57,2-6.28a27.82,27.82,0,0,1,8.82-2.95,3.63,3.63,0,0,0,2.16-1.47c3.27-3.49,6.41-7.27,10.81-9.35,1.86-.88,2.23-1.77,2.5-3.7.67-4.86,2.1-9.69,5.45-13.39s11-3.68,15.87-.25c3.62,2.53,4.79,8.75,2.65,13.5-1.38,3.08-3.29,5.92-4.07,9.27-.29,1.29-.81,2.91.77,3.39s1.29-1.41,1.82-2.31c.94-1.62,1.54-4,3.71-4a5,5,0,0,1,4.58,2.56c2,4.11,3.58,8.34,2.24,13.35-2.59-2.85-7.14-3-8.51-7.15a1.51,1.51,0,0,0-2.05-.6,1.57,1.57,0,0,0-.42,2.11c1,2.2,1.62,4.74,4.27,5.77,4.35,1.7,7.57,5,11.07,7.91,1.18,1,1.62,2.39,2.1,4.05.84,2.87-1.22,5.64-.6,7.07,1.71,3.9-1.38,5.94-2.09,8.78-.39,1.52-.7,1.29.48,2.74a2.32,2.32,0,0,1-.35,3.1c-.41.43-1.91-.13-1.22,1.28.26.54.57,1.25,1.43,1s1.73-.79,1.76-1.84c.16-5.82,2.58-10.91,4.68-16.2s4.52-6.64,9.16-3.52c.8-.78.37-2.39,1.87-2.76,1.61,1.53,3.13,3.4,5.8,2.38-.27-2.11-3.16-.4-3.44-2.88,2.87.86,5.71,1.13,8.4,1.81,7.33,1.87,10.25,7.85,11.87,14.44,1.06,4.27,1.32,4.89,5.62,3.9a13.08,13.08,0,0,1,5.36,0c5.66,1,10.39,3.41,13.93,8.18-1.27-3.31-2.58-6.44-5.79-8.34a26.51,26.51,0,0,0-12.67-3.45c-1.6-.06-2.31-.29-3.29-2.13-3.7-6.95-7.67-13.89-14.75-18.17-.55-.33-1-.81-1.71-.36-2.49,1.52-4.73-.23-5.56-1.76-1.11-2-2.36-1-3.07-.66a120.15,120.15,0,0,0-11.88,6.41c-1.81,1.16-2.17.18-2.31-1a11.65,11.65,0,0,0-2.48-5.53,5,5,0,0,1-.19-5.55,45.18,45.18,0,0,0,3.78-11,6.32,6.32,0,0,1,3.65-4.67,120.83,120.83,0,0,1,13.78-5.48c2.34-.86,3.77-2,3.93-4.66a4.58,4.58,0,0,1,2.76-4c3.68-1.63,4.16-4.37,3.6-8-.86-5.71,1.74-9.75,6.49-11.44,2.87-1,5,1,7.45,1.39,4.94.8,5.13,4.77,4.81,8.05-.31,3.13.34,7.5-4.58,8.54-2,.42-1.8,1.56-.5,2.75a16,16,0,0,1,2.55,2.36c.69,1,.59,2.31-1,2.06-4-.63-5.73,1.5-8.3,4.32-6,6.57-7.09,14.28-7.7,22.39a3.29,3.29,0,0,0,1.9,3.56c-.11-.7-.12-1.08-.21-1.43-1.55-5.45-.36-11,4.6-12.95s4.91-4,3.25-7.84c-.35-.79.46-1.05,1.14-1.18,7.8-1.48,14.43.68,20,6.32a2.69,2.69,0,0,1,.6,3.21,11.34,11.34,0,0,0,.42,10.16c.78,1.59,0,4.44-1.41,4.91-2.3.8-2.2,2.6-3.58,4.21a4.72,4.72,0,0,0,4.61-3.22,17.83,17.83,0,0,1,1.57-3.93c.46-.66,1-1.28,1.92-.66.66.47,1.19,1,.45,1.89-2.31,2.88-.19,3.6,2.09,4.6,6.08,2.63,8.37,8.13,10,14a2.83,2.83,0,0,1-.51,2.48c-1.19.77-1.7-.62-2.4-1.32-3.39-3.37-6.11-7.52-10.2-10-2.57-1.59-5.25-4.2-9-1.37-1.51,1.14-4.67.31-5.31-1.72-.93-2.89-2.65-1.06-2.9-.55-1,2.2-3.56,2.21-5.66,4.2,12.38,1.05,24.63,1,32.38,12.3-1.16.69-2.31-.85-3.61.35,2.36,3.35,6,3.79,9.6,4.3a1.92,1.92,0,0,0,2.22-1.16c2.29-6.59,8.16-8.79,13.85-11.21,1-.41,2.2-.82,1.92-2.1-.38-1.7-1.8-1.14-2.87-.8a16.74,16.74,0,0,0-7.67,5.14c-.63.73-1.1,2-2.34,1.79-1.59-.32-.62-1.74-.76-2.63-.19-1.24-.31-2.34-1.74-2.7-1.13-.29-1.35-1.23-1.92-2.1-1.82-2.75-4.12-5.2-3-8.93.06-.2-.4-.65-.7-.87a62.08,62.08,0,0,0-5.94-4.33,8,8,0,0,1-4.31-7.34c.14-8.82-3.57-15-11.78-18.48,3.67-4.26,7.08-4.9,11.75-2.19,2.36,1.37,4.57,2.05,6.4-.78.86-1.34,2-1.63,3.66-1.59a30.51,30.51,0,0,1,8.82,1.17c.59.2,1.22.77,1.76.1a1.43,1.43,0,0,0-.19-1.81c-3.13-3.84-.88-6.32,2.19-8.53a3.75,3.75,0,0,0,1.61-2.55c.47-2.83,1.93-5.6,2-8.3.23-7.16,5.48-8.37,10.54-10.14,1.78-.61,2.88,0,4,1.42a20.51,20.51,0,0,1,3.33,7.41c.37,1.47,1.48,3.14,2.72.81,1.46-2.74,2.73-1.5,4.28-.41,2.35,1.65,2.88,4.17,3.43,6.75.34,1.54,1.9,3.77,2.86,1.43,1.67-4,5.14-3.94,8.09-5.13,4.68-1.89,11.73-.15,14.79,3.76,1.31,1.68,4.06,4-.56,5.3a1.54,1.54,0,0,0-.82,1.21c.65,4.79-3.58,8-4,12.6-2.82-1.46-5.46-3.3-8.42-3.3-3.6,0-6.1-.29-6-4.78,0-1.47-1.45-3.5-3-2.87-2.2.89-.13,2.52.24,3.83.48,1.64,2.25,3.71-.16,4.8-6.92,3.14-8.31,10.31-12,15.78-.58.86-1.44,2.69.32,2.79,2.36.15,1.38,2.3,2.57,3.35.55-3.24.81-6.23,1.58-9.08,2.25-8.38,8.64-11.32,19-8.37,6.78,1.93,9.2,5.49,8.16,12.53-.65,4.43.21,9.13-2.07,13.31a2.44,2.44,0,0,0,.48,2.89c2.74,3.17,5,6.89,10.21,9-3-2.93-3.17-5.66-3-8.58a86.13,86.13,0,0,0-.47-10.52c-.27-4.1-2.54-8.12-.81-12.3s1.29-8-.13-12.1c-.65-1.88-.85-4,2.09-4.23,1.37-.11,1.7-1,1.91-2.07a28.47,28.47,0,0,0,.35-10.88c-.66-3.36-5-7.37-8.49-7.62-1.68-.13-2.1-1.23-2.64-2.44-1.79-4-3.35-8.33-8.9-8.47a2.05,2.05,0,0,1-1.93-1.7c-.86-3.94-1.7-7.89-2.43-11.86-.25-1.34.59-2.18,1.85-1.45,4,2.31,5-.44,5.82-3.37.36-1.24.44-2.56.82-3.8.68-2.29,2.61-1.79,4.23-1.6,1.17.14,2.7,1,2.19,2.17-2.11,4.91,2.37,10.31-1.26,15.06a3.48,3.48,0,0,0-.25,2.29c.12,1.16.76,2.1,2.07,1.67,2-.64,4.29-.42,5.83-2,3.16-3.32,6.51-3.75,10.52-1.45,1.41.81,3.57,1.73,4.47-1,.8-2.43-.8-5.42-3.22-5.73-1.38-.17-2.87.38-4.25.2-2-.27-5.21.61-5.3-2.48-.07-2.62,3-1.73,4.69-2.23,1.38-.4,3.32.63,3.92-1.55.53-1.92-.69-3.19-1.9-4.42a27,27,0,0,1-1.88-2A7.17,7.17,0,0,0,634,56.31c-1.93-.25-.5,2.7-2.5,3a16.93,16.93,0,0,1-.31-1.87c-.14-2.72-1.19-5-3.92-5.68-3-.76-6.77-.9-8.29,1.77-1.82,3.21-5.52,5-6.21,9-.34,2-1.53,2.51-3.31.81-3-2.84-4.45-6.85-2.66-9.91,3.15-5.43.49-9.6-1.13-14.2-.17-.49-.52-.92-.66-1.42-.61-2.28,1.77-7.57,3.64-7.41,5.42.48,6.9-3.27,8.25-7.15.56-1.61,1.43-2.14,2.37-.84,2.83,3.92,6.83,3.63,10.9,3.56,5-.09,9-3.76,7.87-8.63-1.56-6.68-1-13.5-2.37-20.13-.66-3.16.81-5.26,3.85-5.64,3.74-.46,4.37,1.81,4.32,4.8a102.45,102.45,0,0,0,.56,14.44,98.94,98.94,0,0,1,.15,19.47c-.49,6.46.1,13,.34,19.51a3.2,3.2,0,0,0,2.67,3.39,3.81,3.81,0,0,0,4.26-2c1.29-2.11,2.61-4.2,4-6.24s2.54-3.5,4.45-.25c1,1.7,2.75,3.29,5.21,2.57,2.62-.78,4-2.47,4.36-5.32.61-4.34-.6-8.58-.24-12.87.34-4-.23-7.79-3.36-10.77a4.11,4.11,0,0,1-1.21-3.2c.27-9.09,1.64-18.15.53-27.29-.26-2.15.82-3,3.16-1.72s5.33,1.1,8,1.14c1.83,0,3.59-.65,3.15-3-.39-2-1.56-3.85-4.07-3s-4.91.45-7.36.65c-1.26.1-2.6-.2-2.66-1.65-.14-3.58-1.68-6.79-2.41-10.2-.61-2.84.45-4.47,3.73-4.27s6.42,0,9.76,0c-1.34,3.68-1.38,3.7.34,7.24a4.37,4.37,0,0,1,.36,2.61c-.5,4.35,1.4,5.67,5.65,5,4.45-.69,8.63,1.89,13.1,1.91.19,0,.42.32.54.53,2.64,4.84,2.94,9.9,1.64,16a4.45,4.45,0,0,1-.42-4.68c.85-2.47-.37-4-2.32-5.18a3.84,3.84,0,0,0-5.24,1.1,6.78,6.78,0,0,1-3.3,2.54c-3.42,1.06-4.78,3.78-4.39,7a18.57,18.57,0,0,1-1.64,10.92,4,4,0,0,0,1.24,5c1.43,1.22,3.1,1.72,4.6.39s2.38-.29,3.59.52c2.82,1.87,5.59.62,6-2.74a27.77,27.77,0,0,0-.43-5.42c-.09-1.06-1-2.52.84-2.8s1.95,1.32,2,2.62c.07,1.95.07,3.91,0,5.86-.17,5.21-1.53,6.34-6.6,5.61a14.07,14.07,0,0,0-2.34-.13c-1.52,0-3,.29-3.1,2.2a2.92,2.92,0,0,0,3,3.31,19.21,19.21,0,0,0,6.59-.78c-2.67,2.8-2.09,6.1-2.13,9.27-.07,6.78-.08,13.56-.25,20.33,0,2.4.46,4.83,2.4,5.87,2.68,1.45,4.12,3.82,6,5.92,1,1.13,2.85,2.11,2,3.85-.72,1.42-2.38.26-3.59.25-2.52,0-4.85.28-5.57,3.15s1.14,4,3.38,4.9c1.27.48,2.85,1.1,2.2,2.63-1.09,2.61-3.59,4.33-5,6.86-.81,1.45-2.66.18-4,.29a5.85,5.85,0,0,1-4.78-2.16c-2.36-2.37-5-4.19-8.65-3.6-1.52.25-2.25-.73-3.15-1.78-3.73-4.29-11.55-3.19-13.59,2-.68,1.73-1.41,2-3.12,1.86a117.48,117.48,0,0,1-14.57-2.56c-3.44-.79-6.81-.71-9.82,1.12-1.89,1.15-5,2.64-3.63,5.21,1.54,2.93,4.42.6,6.12-.47,3-1.89,5.23-1.41,8.18.22,5.56,3,8.69,6.89,7.89,13.66-.44,3.78-.38,4.17-3.81,2.35-1.65-.89-3.06-.94-4,.75s.23,2.52,1.4,3.56c2.93,2.61,7.38,3.83,8,8.69.14,1.2,1.57,1.61,2.51,2.31,4.4,3.24,7.73,7.13,8.75,12.84.76,4.23,1.27,8.48,1.86,12.73.13,1,.24,2.39,1.46,2.52s1.38-1.34,1.67-2.26a39.28,39.28,0,0,0-1.41-27.41c-1.1-2.64-2.17-5.28-3.17-8-.94-2.52-1.36-5.31,1.54-6.33,2.4-.84,5.87-2.79,7.32,1.87.5,1.61,2.15,1.94,3.6,1.69,3-.5,5,.23,5.84,3.49.47,1.89,1.72,2.38,3.57,1.34,1.36-.76,3.11-1.08,3-3.08-.08-2.35-1-4.44-3.19-5.46a11.71,11.71,0,0,1-6-5.74c-1.13-2.28-3.25-3.65-5.57-1a2.72,2.72,0,0,1-2.81.82,8.64,8.64,0,0,0-6,1.09c-1.87,1.15-2.45.59-2.59-1.43-.08-1.28-.69-2.52-.88-3.8-.32-2.18-1.43-5-.5-6.43a7,7,0,0,1,6.67-3.18c2.32.37,5.52-.35,6.18,3.38a3.79,3.79,0,0,0,4.48,3.38,5.35,5.35,0,0,1,5.65,3.34c1.49,3.16,4.33,4.83,7,6.62,2.33,1.55,4.22.74,5.25-1.87a12.61,12.61,0,0,0,.85-4.57c0-3.56,1.67-4.87,5.58-4.65,3,.18,5.94.56,5,4.91a6.72,6.72,0,0,0,.55,3.79,20.47,20.47,0,0,0,8.53,10.47c1.15.74,2.25,2.44,3.48.46s-.73-2.63-1.91-3.14a18.83,18.83,0,0,1-5.62-3.45c-1.45-1.38-1.81-2.39.74-3.18,4.07-1.27,4.92-5.45,1.93-8.57-.88-.93-2.25-1.43-2.56-2.84-.83-3.79-2.88-7-5-10.09-1.6-2.35-1.7-4.43.8-6.41a11.29,11.29,0,0,0,3.7-5.84,25,25,0,0,0,2.57,2.94c1.43,1.17,3,2.16,5,1.2A4.68,4.68,0,0,0,725,64.59c.42-11.07.91-22.13,1.34-33.19.11-2.72-1.41-5.4.79-8.15,1.16-1.44-.32-3.41-2-4-3.16-1.19-6.39-2.13-9.78-.29-2.89,1.56-8-1.09-8-4.37,0-8.32.4-16.65.93-25,.15-2.26.74-4.33-.94-6.24-1.08-1.23-.48-2.16.9-1.89,2.48.49,4.76,1.16,6.86-1.06.59-.62,1.32.47,1.86,1,2.76,2.57,6,2.6,9.1,1.15,3.27-1.53,2.06-4.56,1.74-7.26-1-8.86-.42-9.55,8.22-9.58,1.18,0,2.35.06,3.52,0,1.59-.08,2.55.55,2.47,2.21-.23,4.53.25,9.12-1.29,13.54-1.05,3,.09,4.82,3.32,5a101.05,101.05,0,0,0,10.15.07c1.74-.07,3.82.32,4.86-1.73s-.15-3.67-1.59-5.13a2.47,2.47,0,0,1-.91-2.44c.41-1.15,1.57-.62,2.4-.6,8.85.16,17.7.48,26.55.51a66.54,66.54,0,0,0,10.43-1c2.71-.41,4.53-1.25,2.93-4.92-1.75-4.06-.36-5.52,4.2-5.56,5.73,0,11.47-.09,17.2-.08,4,0,5.27,1.78,4,5.62a16.83,16.83,0,0,1-1.3,2.39c-2.08,3.94,0,10.91,4.19,11.87,5.28,1.19,4.95,5,4.45,8.34a210.87,210.87,0,0,0-1.81,25.32c-.08,3.39-1.11,5.81-4.4,7-2.9,1.06-3.53,3.25-3.62,6.17-.25,7.65,1,15.36-1.08,22.94-.46,1.63.16,3.37.7,5,.36,1,.94,1.83,2.29,1.61,1.87-.31,4.79-2.35,5.32.08.44,2-3.26,1.53-5.05,2.33-2.6,1.14-3.8,3.2-3,6,.79,2.94,2.83,2.21,5,1.55,4.29-1.32,6.91.14,8.51,4.41.42,1.12.91,2.21-.13,3.26s-2.13.31-3.13-.29A11.41,11.41,0,0,0,824,77.66c-1.93.19-3.7.93-3.51,3.33.2,2.58,2,2.09,3.95,2.23,4.29.32,10-2.15,11.68,4.83.09.38.87.93,1.19.85,3.71-.9,7,.13,10.11,2,.26.16.76-.06,1.14-.14,5.62-1.16,10.16-4.42,14.72-7.61a2.16,2.16,0,0,0,.52-2.85c-.61-1.28-1.7-1-2.7-.58a30,30,0,0,0-4.68,1.9c-4.5,2.64-8.89,3.66-14.07,1.42-4.83-2.09-5-1.76-3.24-6.53a6.35,6.35,0,0,0,.64-3.39c-1.06-4.1,1.14-5,4.5-5.21,11.17-.8,22.28-2.4,33.49-2.7,4.41-.12,9-.75,13.16.6,2.7.86,4.29.46,5.44-1.77,1.51-2.92.66-7.25-1.63-7.81-3.69-.9-3-3.2-1.37-4.79,2.54-2.52,2.79-5.41,2.84-8.57.25-15.77.27-31.55,1-47.3.22-5.17-3.36-9-2.78-14.07,3.35,1.9,3.76-.47,4-3.36a19.25,19.25,0,0,0-.71-8.07c-1.18-3.58-.4-4.47,3.35-4.49,7.56,0,15.12.08,22.68,0,2.52,0,3.51.75,3.45,3.32-.06,3,.19,6,.38,9,.08,1.26-.48,2.75,1,3.85,1.13-1.81.52-3.54.7-5.19s-.69-4.2,2.65-4c2.75.13,4.3.89,4.26,4.12-.14,10.3-.06,20.6,0,30.89,0,2.2-.65,3.11-2.93,3.65-6,1.43-8.61,6-7.37,12.1.44,2.18,1.3,2.74,3.11,1.5a13.26,13.26,0,0,0,2.63-2.27c1.07-1.24,1.78-3.68,3.6-3s.71,3.25.94,5-.76,2.28-2.33,2.31-3.38.27-5.08.3c-2.27,0-3.35,1.15-3.29,3.4,0,1.43,0,2.87.14,4.3,1,11.57,0,23.17.61,34.75a4.86,4.86,0,0,1-.27,1.93c-3.73,10.38-.44,20.53,1.13,30.7.4,2.6,2.49,4.38,4.58,5.83,1.1-.67.73-1.5.72-2.24,0-1.72,1.48-2.31,2.54-2.44,2-.25,1.19,1.68,1.25,2.58.2,2.72.1,5.47.1,8.21,0,10.21,0,20.41,0,31.16-1.89-2.14-1.92-4.41-3.75-5.88-4.75-3.83-9.82-5.93-16.08-5-5.76.82-11.31,1.51-14,7.87a14.46,14.46,0,0,1-3.72,5c-4.39,4-7.32,9.09-10.23,14.13-2,3.57-1.75,8.06-4.06,11.65-1.82,2.83-3.77,5.42-7.07,6.53-.83,1.27,3.76-.75,1.16,2.47-3.26,4-7.07,7.33-10.76,10.82-.69.66-1.47,1.18-1.35,2.18.15,1.31,1.62.21,1.72.38-3.55,7.1-8.45,12.88-12.39,19.56,5.25-5.13,11.08-8.7,18.69-7.93.12.95-2.2,1.66-.66,3.08.92,0,.92-.81,1.29-1.28a3.36,3.36,0,0,1,4.14-1.24c.48.18,1.09.5.78,1.1-.65,1.27-2,1.66-3.24,2A33.4,33.4,0,0,0,865,215.84c-3.24,2.33-6.58,4.54-9.93,6.72-.95.62-2.11,1.26-3.25.36-.82-.64-1.13-1.95-.4-2.41,3.44-2.16,1.61-4.52.6-7a15.57,15.57,0,0,1-.53-8.48c.75-4.76,1.44-9.52.66-14.37a14,14,0,0,1,1.39-8.32c3.39-7,2-13.76-.84-20.37-.59-1.41-1.07-2,.14-3.18,1.56-1.5.87-3.17-.28-4.54s-2.23-3.21-4.42-2.56a3.76,3.76,0,0,0-2.68,4.32c1.43,5.44-4.28,7.67-4.3,12.89-12.07-15.39-20.26-16.81-37-7-1.76,1-2.28.29-2.74-1.22-1.24-4-3.43-7.58-5.28-11.31-1.54-3.1-4.38-4.39-7.52-5-1.37-.27-3.12-.12-3.65,1.54-.62,2,1.2,2.37,2.5,2.76,2.77.83,5.62,1.52,7.22,4.23,3.4,5.73,8.65,11.12,3.44,18.53a8.93,8.93,0,0,0-1.17,4.1,4.1,4.1,0,0,1-2.67,3.52c-5.9,2.68-10.13,7.35-13.78,12.42a16.43,16.43,0,0,0-3.36,10.84c2-.73,1.72-2.11,2.1-3.12a27.43,27.43,0,0,1,12.7-15.09c.87-.47,1.79-1.54,2.81-.81s.47,2.14.29,3.26c-.32,2.06-.71,4.11-.93,6.17-.09.87,0,2,1.17,2.16s1.15-.9,1.32-1.6c1-4.29,2.71-8.47,2.61-13-.09-4.12,1.85-7.2,4.74-9.86,1.14-1.05,2.19-2.22,3.4-3.18,4.6-3.66,9.25-7.56,15.73-5.21,3.4,1.24,7,2.52,9.75,4.76s6.28,4.16,7.06,8.44c1.16,6.37,4,12.34,4.34,19,.22,3.85-.32,7.16-3.23,9.49-4,3.2-5.15,16.75-1.71,20.63,1.56,1.77,1.71,3-.15,4.47a7.92,7.92,0,0,0-1.66,2.16c-1.36,2.3-2,4.53.47,6.64s4.58,2.45,7,.33a5.31,5.31,0,0,1,3.89-1.48c5.51.15,10.5-2.35,15.81-3.28a27.74,27.74,0,0,1,9.18-.14c5.27.78,9.56,4.1,14.56,5.21,9.28,2.07,14.86,7.93,18.37,16.28,1.77,4.2,3.4,8.45,5.15,12.66.33.79.61,2,1.78,1.74s1.16-1.33,1.2-2.22a22.09,22.09,0,0,0,0-5.45c-1.66-7.9-3.79-15.53-7.74-22.79-3.33-6.11-7.7-9.83-14.2-11.66a27.14,27.14,0,0,1-6.35-3c-2.47-1.46-6.53-2.83-6.46-5.23s4.44-2.56,6.95-3.18c5-1.22,9.38-4,15-3.56,8.08.66,15.44,3.46,22.88,6.08,11.08,3.89,11,4,11.25,16.08,0,.66,0,1.31,0,2q0,36.56,0,73.13v6.22c-1.34-.33-1.27-1.11-1.62-1.6-3.92-5.53-7.13-11.72-13.45-15.09-3.56-1.9-6.35-4-4.87-8.8a4.19,4.19,0,0,0-1.84-4.46,1.49,1.49,0,0,0-2.09.35,4.71,4.71,0,0,0-1,4.74,12.38,12.38,0,0,0,1.28,2.83,4,4,0,0,1,.45,3.36c-1.07,3.09.22,5.51,2,7.92,2.45,3.23,5.82,5.48,8.55,8.28,2.88,3,5.62,5.78,9.45,7.19,2.27.83,2.94,2.12,2.94,4.34,0,7.17.17,14.33.19,21.5,0,13.69,0,27.38,0,41.06,0,2.25.21,3.75-3.44,3.59-3.23-.16-6.36-.67-9.54-1-1.22-.14-2.86-.59-3.45,1s.36,2.74,1.58,3.67a22.43,22.43,0,0,0,5.81,3.16c9.07,3.43,9.07,3.43,9.07,12.89V610.05H399.66c2.09-3.53,3.57-7.22,3.24-11.46a4.09,4.09,0,0,1,.63-2.61c4.37-5.58,5.47-11.57,2.68-18.2a4.93,4.93,0,0,1-.18-1.93,9.91,9.91,0,0,0-2.24-6.9c-1.23-1.41-1-3.15-.77-4.85,1-6.55-1.61-12.23-4.7-17.6-2.79-4.86-6.1-9.26-4.6-15.47.78-3.24.07-6.74.11-10.09.12-10.06-6.07-18.68-5.78-28.84.2-6.89-3.27-13.3-4.93-20-.46-1.88-1.65-3.79-.93-5.68,3-7.84,1.55-14.79-1.86-22.46-4.15-9.34-9.75-16.05-19.59-19-.74-.22-1.45-.58-2.19-.84a6.45,6.45,0,0,1-4.43-5.91,54.93,54.93,0,0,0-2.94-13.68c-.93-3-.87-5.82,2.87-7.42,4.92-2.09,5.89-4.56,4.68-10.06-1.27-5.75-2.72-7-8.45-7.07a15,15,0,0,1-3.87-.25A4.76,4.76,0,0,1,343,376.3c-.48-2.05,1.45-2.12,2.64-2.74a25.67,25.67,0,0,0,4.38-3.19c4.41-3.62,8-8.12,12.86-11.31A22.15,22.15,0,0,0,372,347.23c2.84-8.79,5.52-17.66,9-26.2,2.84-7,3.26-14.73,6.75-21.5,2.13-4.11,1-6.8-3.58-7.47-3.33-.5-6.76-.28-10.14-.38-2.16-.07-3.35.59-2.25,3a2.12,2.12,0,0,1-.53,2.83c-2.84,1.94-1.82,4.52-.75,6.6,1.69,3.35.6,5.63-2.16,7.27a6,6,0,0,0-3.07,6.2,14,14,0,0,1-2.38,8.79c-2,3.14-4.95,5.78-4.7,10.35.11,2.08-2.51,4.49-4.74,5.86-1.64,1-3.57,1-4.57-1.27a19.21,19.21,0,0,0-5.07-6.37c-3.94-3.52-5.67-8-5.95-13.12-.12-2.09-.08-4.35-1.16-6.09C332,308.1,326,301.39,319.82,294.93c-4.2-4.38-10.05-7-13.14-12.6-1.69-3.07-3.55-6.05-5.51-8.95-2.8-4.13-.37-13.82,4.4-14.63,2.84-.49,3.08-2,3.94-3.63A8.66,8.66,0,0,1,311.8,252c1.5-1.1,3.45-2.43,1.52-4.28-1.58-1.52-3.55-.67-5.11.94-2.44,2.52-5,4.92-7.31,7.58-1.88,2.16-2.19,6.07-4.93,6.67s-4.65-2.83-7.14-4.21c-3.35-1.86-7.16-3.44-9.54-6.6a18.61,18.61,0,0,0-8.37-6.08c-6.4-2.56-11.75-7.47-19.13-8.16a61.87,61.87,0,0,1,7.19-4.38c.94-.52,2.69-.71,2-2.3s-2.05-.34-3,0a21.77,21.77,0,0,0-3.5,1.71c-3.57,1.94-7.22,3.65-11.33,4-5.82.55-6.47,0-6.84-5.78-.06-.84.56-2-.62-2.41s-1.64.6-2.38,1.37c-4.08,4.25-9.18,4.8-13.92,1.23-6.53-4.92-10.74-12.13-17.16-17.39-3.17-2.6-6.6-4.62-9.85-7-1-.72-3-1.85-3.19-1.62-1.95,2.26-6.94-3.13-7.3,2.9,0,.42-1.41,0-2.15-.2-4.79-1.37-7.38-.3-9.9,4.21-.55,1-1.14,2.23-2.2,1.65-2.61-1.44-5.76-.23-8.39-2.38-1.69-1.39-3.51-3.2-6-3.61-2.2-.36-3.43-1.8-4.48-3.82-2.1-4.06-5.38-5.44-9.46-3.55a9.19,9.19,0,0,1-9.59-.9c-5.32-3.7-9.85-1.61-14.33,1.15-3.78,2.33-5.81,6.41-8.73,9.71a19.73,19.73,0,0,1,8-3.08,2.93,2.93,0,0,0,2.16-1.47c2.31-3.82,4.39-4.34,8.41-2.16,1.2.65,3,1.1,2.47,3-.43,1.59-2,2.05-3.46,2-3.35-.2-6,1.33-8.66,3.07-.87.57-2,1-1.49,2.35a2.17,2.17,0,0,0,2.6,1.24,13.59,13.59,0,0,1,6.17.35c5.2,1.63,10.42,3.23,15.69,4.61a5.93,5.93,0,0,1,4.36,3.8,18.79,18.79,0,0,0,8.94,9.36c4.81,2.17,10.12,3.21,15.23,4.69a5.47,5.47,0,0,0,5.49-1.09c3.68-3.32,4.44-9,2.26-13.48-1.26-2.6-3.51-5-2.77-8.29.2-.89.37-1.85,1.44-2.13a1.78,1.78,0,0,1,2.24,1.09c.7,1.58,2.31,2.41,3.48,1.72,3-1.82,6.44-.43,9.57-1.72,4.86-2,8.1-.7,11.65,3.64,3.82,4.67,4.72,10.57,7,15.91,3.19,7.58-.47,12.78-4.61,18.1-1,1.29-.82,1.66.43,2.64,3.63,2.84,2.94,6.19-1.53,7.66a50.28,50.28,0,0,1-5,.9c-1.11.23-2.56.29-2.81,1.69s1.11,1.62,2,2.07c2.22,1.13,2.74,2.06.22,3.68a14.7,14.7,0,0,0-4.8,5.54A55.17,55.17,0,0,1,183,287.9a23.32,23.32,0,0,0-5,9.14c-2.17,6.63,2.76,16,9.21,17.58,3.65.87,10-4.94,11.6-10.69a12.93,12.93,0,0,0,.54-3.07c.25-7.7,4-13.19,10.4-17.23a26.7,26.7,0,0,0,8.81-9.2c1.54-2.61,2.59-5.68,5.53-7.39a16.22,16.22,0,0,1,12.47-1.51c6.32,1.52,12.08,4.51,18.06,6.89,8.6,3.42,16.91,7.09,24.59,12.18,6.66,4.43,12.05,9.88,13.7,18.18.7,3.5,2.76,6.49,4.76,9.32,7.16,10.16,13.8,20.57,18.18,32.29a22.09,22.09,0,0,1,1.4,6c.33,3.95.92,7.7,4.6,10.63,4.71,3.74,4.65,6.49,1.79,12-2.17,4.2-3.78,8.55-2.37,13.49,1.56,5.51,2.55,11.21,4.4,16.61,1.63,4.73-.29,9-.74,13.4,0,.52-.73,1.37-1.17,1.4-4.61.31-9.19,2.3-13.83.51-3.95-1.52-7.91-2.89-11.54-5.28s-9.59-1.34-11.34,1.5a47,47,0,0,0-3.37,6.59c-2.22,5.32-5.38,9.5-11.53,10.38-9.53,1.36-17.79,4.9-24.46,12.27-6.19,6.84-11.38,13.43-9.39,23.73,1.24,6.46-.37,7.31-6.79,6.48a27.23,27.23,0,0,1-2.72-.28c-7.52-1.86-13-6.27-16.06-13.4a46.16,46.16,0,0,0-7.68-12.17c-3-3.48-10.53-4.18-12.65-1-3.53,5.24-5.74,11.14-3.77,17.6,2.34,7.68,8.45,13,12.84,19.37,1.85,2.7,4.59,4.57,7.24,6.48,1.18.84,2.39,1.53,3.51.5,2.2-2,3.47-.49,4.85.94,2.85,2.95,6.07,6,10,6.38,6.09.59,12,2.33,18.09,2.63,7.12.34,14.26,1.16,20.12,6a10.12,10.12,0,0,0,3.17,1.47q17.52,6,34.36,13.67c6.91,3.14,13.23,7.76,14.89,15.51a96.45,96.45,0,0,0,6.58,20.27,14.57,14.57,0,0,0,4.88,5.91c1.31.95,2.89,2.59,4.43,2,1.9-.69.89-3,1.15-4.57a20.08,20.08,0,0,1,.42-2.69,3.07,3.07,0,0,1,3.12-2.46c1.81.05,3.68.65,3.88,2.59.37,3.63,1.85,7,2,10.71.24,5.33.07,10.62-.14,15.94a9.77,9.77,0,0,0,1.35,6C349.36,597.39,347.84,603.76,347.26,610.05ZM92.84,214l6.41-12.31-1-.47c-2.15,4.12-5.57,7.65-5.34,12.89-1.24,2.46-3.66,4.29-4.24,7.46C92.84,220.23,93,217.18,92.84,214Zm493.91-29.29c-1.09-.73-2.25-.37-3.41-.22-2.61.34-2.61.33-1.27,2.71.5.88-.16,1.39-.55,2-1.11,1.86-3.57,2.68-4.08,4.9-.56,2.43-1.12,4.64-4.61,4.59,1.24.89,2,1.35,3,1.28s1.41.5,1.56,1.39c.2,1.17-.7,1.16-1.42,1.38-1.52.46-2.83.76-4.13-.81a26.74,26.74,0,0,0-5.12-4.79c-3.07-2.17-4.71-6.2-8.93-7-.07.38-.21.64-.15.83.73,2.4,2.76,3.2,4.73,4.41,5.14,3.14,7.95,8.77,12.57,12.55.82.67,1,2.81-.5,2.77a3.66,3.66,0,0,0-3.72,3.66c.18,3.95-5,5.43-3.9,9.7.35,1.34-1.84.53-2.71,1.12.43,1,2,.23,2,1.49,0,.39-.56.9-1,1.12-2.93,1.52-7.75-1.58-7.44-4.89.07-.77.47-1.63,0-2.19-3.6-3.85-3.66-9.16-5.61-13.69-.62-1.42-1-2.39-3-2.75,1.66,7.56,2.92,14.95,6,21.55,1.87,4,3.86,9.2,10,9.45a2.19,2.19,0,0,1,1.71,2.37c-.81,2.95-.24,5.92-.49,8.87-.53,6.35-6.19,8.35-10.19,11.27-6.63,4.84-10.25,11.64-9.74,18.85.7,9.87-1.85,20.13,2.5,29.72.28.61-.11,1.53-.18,2.31-.16,1.81-.42,3.63-.46,5.44-.09,5.24-2.58,7.08-7.85,5.83a7.34,7.34,0,0,0-7.11,2.18c-3.42,4.43-8.21,6.88-12.48,10.08-1,.74-1.9,1.29-2.1,2.54a1.61,1.61,0,0,0,1.14,1.81c1.47.63,2.29-.24,3.39-1.1,4.75-3.73,9.53-7.73,15.35-9.36,4.62-1.29,9.07-3.16,13.79-4.1,1.46-.29,3-.89,2.68-2.74-.67-4,1.48-6.7,4.16-9.11,1.42-1.29,2.09-2.63,1.1-4.46-.61-1.12-.92-2.67-2.49-2.7-2.2,0-1.25,2.55-2.65,3.56a12.57,12.57,0,0,1-1-1.62c-4.82-11.05-2.66-22,1-32.66a9.38,9.38,0,0,1,7-5.76c4.23-.8,6.39-2.68,6.94-6.94.46-3.57,3.21-4.65,5.81-2.23a18.13,18.13,0,0,0,6.11,4c1.76.66,2.44,2.14,1.48,4.14C578.71,273.23,579,282,576.49,290c-1.31,4.16,1,7.53,4.44,7.67,3.94.15,4.15-3.2,4.83-5.95a6.65,6.65,0,0,0,.1-.78c1.14-9.16,2.49-18.23,6.95-26.56a13.22,13.22,0,0,1,4.38-4.66c5.55-4,13.14-3.59,18.18-8.59.75-.75,1.47-.41,2.4.12,7.89,4.42,15.51,9.43,24.42,11.79a6.7,6.7,0,0,1,5.21,7,50,50,0,0,1-4.63,19.2c-.46,1-1.31,1.7-2.1,1.07-2.36-1.83-5-.53-7.4-.95-2.68-.48-4,.47-5.31,2.72-3.06,5.47-10.84,7.78-16.13,4.6A12.71,12.71,0,0,0,601,295.56c-3.25,1-6.43,2.43-9.74,2.84-3.52.43-6.65.87-8.7,4.17a3.39,3.39,0,0,1-2.71,1.32c-9.18,1-14.34,7.85-19.5,14.2-2.48,3.06-3,7.12-6.42,10.37a33.28,33.28,0,0,1-11.74,7.67c-2.54.94-4.67,2.26-5.91,4.77a4.08,4.08,0,0,0,.44,4.42,3.46,3.46,0,0,0,4,1.61c7.71-2.37,15.46-4.61,23.07-7.25,3.16-1.09,4.7-3.75,3.37-7.24-.81-2.15,0-2.92,2-3.64a11.3,11.3,0,0,1,7.55-.19q9,2.7,17.86,5.57c8.2,2.66,16.52,1.27,24.77,0,3.26-.49,6.33-.78,9.56.54,7.6,3.11,15.67.15,19.8-6.94a34.2,34.2,0,0,1,2-3.36c3.7-5,3.72-5-1.33-8.38-4.76-3.22-5.82-6.55-4.48-12.13a61.79,61.79,0,0,0,1.91-9.93c.41-5.79.35-11.59,1.3-17.39.67-4.14,1.83-8.45.91-12.78-1-4.5-2.78-9.09,1.53-13a2.42,2.42,0,0,0,.41-1.48,5,5,0,0,1,4.1-4.71c5.1-.74,3.13-2.51,1.11-4.63-.4-.42-1.23-.64-.76-1.84a18.45,18.45,0,0,0,9.1-3.11c8.47-6,17.67-10.06,28.53-10a103.44,103.44,0,0,1,21.24,1.74c5.4,1.13,10.7,2.92,13.64,7.57,4.06,6.41,9.7,11.54,13.55,18.08,2.23,3.8,5.52,6.69,10.16,7.19,2.25.24,3.92.81,4.21,4.42,2.14-6.56,6.51-10.27,9.31-15,2-3.35,5.17-4.59,8.36-6.32,3.68-2,8-.54,11.44-3a14.72,14.72,0,0,1,6.78-2.52c-1.78,1.63-.94,4-3.52,4.73-.9.25-.8,2.18,0,3.14s1.69,1.89,3,1.37c1.08-.42.85-1.46.48-2.36-.46-1.08-.28-1.79,1.06-1.77,2.1,0,3.17-1.61,4.58-2.72.7-.55,1.72-1.07,1.26-2.14-.59-1.38-1.65-.88-2.61-.34s-1.78.56-2.31-.5c-.46-.9.23-1.4.83-1.93A27.92,27.92,0,0,0,802.19,224c.45-1.11,1.85-2.57.3-3.39-1.38-.73-1.66,1.2-2.22,2.11-4.78,7.75-11.81,12.21-20.88,14.11,3.42-2.75,3-6.79,4-10.29.22-.78.68-2-.61-2.26-1.1-.19-1.35,1-1.59,1.86a12.82,12.82,0,0,1-.32,1.92c-1.77,4-2.19,9-6.69,11.24-3.46,1.75-7.12,3.14-10.74,4.57-.79.31-2.45,1-2.37-.74.26-5.08-2-9.64-2.62-14.48s-1.15-9.93-3.52-14.24c-4.89-8.88-12-15.4-22.17-17.74-4.82-1.11-9.07-4.06-14.15-4.18a53.1,53.1,0,0,1-16-3.24c-1.12-.38-2.37-.93-3.42-.31-4.5,2.64-7.58-.42-10.89-2.56-1-.64-1.05-1.52,0-2.15,1.49-.89,2.87,1.65,3.9.67,2-1.9-2.58-1.44-1.51-3.31.19-.34.53-.64.6-1a52.3,52.3,0,0,0,1.33-7.68c.26-7.4,4.5-12.74,11.74-13.49,2.75-.29,5.23-2.13,8.08-1.32,2.23.63,4.38,1.58,6.63,2.13,6,1.46,10.65,4.53,12.83,10.67,1.45,4.07,2.86,8.12,2.5,12.53a9.7,9.7,0,0,0,2.21,6.9c.53.68.89,1.54,2.17,1,3.08-1.29,6.19-8.51,4-10.72-3.27-3.33-1.52-6.19-.1-9.2.63-1.33,1.57-2.63.85-4-1.35-2.62-1.73-5-.09-7.72.79-1.28-.6-2.19-1.48-3.22-5-5.88-12.13-7.16-19.1-8.62-2.61-.54-5.07-1.64-8-1-5.11,1-5.16.78-4.41-4.11,0-.15-.3-.35-.84-1-3,4.5-7.78,6.19-12.69,7.39a17.12,17.12,0,0,0-10,6.93c-3.31,4.49-5.52,5.1-9.07.71-4.06-5-9.21-2.78-13.18-2.36-5.53.57-10.17,4.74-12.83,10.17a6,6,0,0,0,3.43,8c.68-1.62-.18-3.55,1.45-5.06,3.76-3.47,8.43-5,13-6.71.83-.3,1.43.34,2.1.75,3.34,2,4.8,6.12,8.53,7.77.46.21.79,1.45.65,2.1-.62,2.78.11,5.31,1.07,7.85.55,1.45.38,2.9-1.53,2.47-4.48-1-8.34,1-11.93,2.81-5.48,2.79-11,5.85-13.35,12.32a5.11,5.11,0,0,1-3,3.42c-1.68.55-2.18,1.78-2.7,3.43-1.55,5-4.49,9.3-7.2,13.69-.89,1.43-2.68,3.77-4.17,2.81-5-3.24-10.74-2.4-16-3.87-3.61-1-7.25-.31-10.72,1.08-1.81.72-3.62,1.46-5.44,2.16-2.5.95-3.88.29-3.35-2.6.91-4.92.15-9.89.6-14.82.06-.67-.13-1.28-1.31-1.44,0,4-2.86,4.46-6,4.62a16.06,16.06,0,0,0-8.34,3c-1.16.8-3,2-1.06,3.65,3.43,2.83.44,4.24-1.23,5.67-1.24,1.06-3.06,1.42-4.51,2.28a10.67,10.67,0,0,0-2.55,16.77c.69.76,1.88,1.45,1,2.56s-2.14.42-3.1-.25c-2.6-1.84-5-4.09-8.23-4.78-.86-.18-.83-.71-.43-1.44,1.8-3.3,1.6-7.88,6.27-9.36a2.92,2.92,0,0,0,1.82-3.17c-.41-7.14,1.73-13.86,3.87-20.46,1.72-5.31,2.14-11.41,7.13-15.25,2.8-.81.56-3.69,1.84-4.8,2.86-2.47,6.06-4.67,10.06-4.62,3.78,0,4.72,1.8,2.93,4.93-.26.45-.44.95-.72,1.39-.74,1.18-1.36,2.72-.1,3.5,1.42.88,1.82-1,2.37-1.85,2.68-4.12,6.33-6.07,11.27-5.4,1.67.23,3.32.6,5,.77a2.71,2.71,0,0,0,2.9-2.92c-.15-1.87-1.26-.63-2,0a.66.66,0,0,1-1.12-.52c0-.59.17-1.55.55-1.72,1.75-.79,4.34-1.93,5.42-.71,2,2.2,3.31,4.37,6.59,2.6,5,3.82,12.43,3.47,16.14,9.5.44.72,1.17,1.85,2,1.31s.77-1.75.25-2.82c-1.09-2.26-2-4.58-3.11-7,3-.48,4.09,1.76,5.71,3.11.57.47.94,1.38,1.89,1a1.11,1.11,0,0,0,.6-.88c-.1-.9-.65-1.19-1.57-1.67a72,72,0,0,1-11.82-7.2c-2.91-2.32-4.63-4.7-9.48-4.71s-9.23-2.93-13.1,2c-.18.23-.82,0-1.12.23-3.43,2.2-7.82.9-11.13,2.72-3.87,2.13-7.49,1.52-11.35.81a20.39,20.39,0,0,0-2.72-.15c1.27,4.52-6.36,2.14-5.14,6.63C584.5,179.91,584.76,182.17,586.75,184.69ZM558.27,405.52c0-6.48-6-14.94-11-17.13a57.22,57.22,0,0,1-11.07-5.75c-5.89-4.27-11.69-8.11-19.4-8.1-3.82,0-5.17-2.92-3.58-6.51.39-.89.64-1.83-.29-2.43s-1.53.17-2,.75c-2.26,2.86-4.88,2.38-7.63.92-3-1.57-6-3.1-8.86-4.9-3.14-2-6-4.49-9.94-5.26-6-1.18-6.84-2.61-5.61-8.71a16.3,16.3,0,0,1,1.64-4.36c4.56-8.53,5.15-16.66-1.32-24.72-5.29-6.58-15-5.94-18,1.83-1.64,4.28-.37,8.89,1.9,12.8a70.78,70.78,0,0,1,8.79,27.17c.81,6.42,1.24,13.25,8.77,16.13,1.82.7,3.57,1.58,5.34,2.4a12.44,12.44,0,0,1,4.22,2.71c2.64,2.86,5.42,5.62,8.28,8.26,3.39,3.11,7.2,5.21,12.06,4a4.47,4.47,0,0,1,3.32.81c4.81,2.59,9.48,5.54,14.48,7.69,7.75,3.35,14,8.67,20.43,13.91,4,3.3,4.84,6.7,2.6,11.65a4,4,0,0,0-.18,3.72c3.45,7,11.93,8.34,17,2.55,2-2.28,4.25-3.11,7.41-3.41,8.15-.77,16.44-1.81,21.85-9.35a6.09,6.09,0,0,1,5.28-2.89c5.18.23,10.32-1.83,15.53-.17a3.66,3.66,0,0,0,2.27-.33c4.9-2,8.27-5.48,9-10.88.74-5.6-1.58-10.59-6.34-12.84-4.23-2-9.43-2.72-14.11.49-3.38,2.32-6,5.45-9,8.13-1.9,1.7-3.52,2.51-6.12.62-4.34-3.15-15.3-1.71-19,2-.36.37-.92.85-.89,1.24.24,3.23-2.56,4.23-4.25,6.07-2.3,2.5-4.09,2.55-5.52-.75-.36-.84-.72-2-1.75-1.85C557.81,411.69,558.54,408.25,558.27,405.52Zm238.38-335c5-4,6.22-6.58,4.92-12.79-1.62-7.76-2.29-15.38-.23-23.17.76-2.86-.62-4.91-3.9-4.84q-9.36.21-18.71.59c-6.76.27-13.51.91-20.29.29-1.71-.16-3-.32-2.76-2.69.4-4.46-1.39-5.74-5.82-4.44a5.67,5.67,0,0,1-3.39.45c-4.35-1.23-5.88-.07-5.87,4.48q0,15.26.16,30.5c0,2.61.07,6.14,3.14,6.31,3.56.2,3.44-3.47,3.69-6.17,0-.26,0-.52,0-.78.2-2.35.67-4.74,3.65-4.52s2.58,2.78,2.6,4.83c0,2.74.05,5.31,1.9,7.76,3.18,4.2,7.05,5,13.17,3.62,3.5-.78,6.91-1.67,10,.84,2.11,1.71,3.93,2.42,6,0,1.07-1.24,2.43-.92,3.29.38s.15,3.25-.95,3.18c-3.05-.2-3.88,2.67-6,3.62a2.2,2.2,0,0,0-1.4,2.88c1.31,2.94,4.39,3.48,7,4.41a3.37,3.37,0,0,0,4.36-2.39c1-3.2,2.69-3.23,5.29-1.87,2.34,1.23,3.93.23,4.8-2.23C802.65,75,801.17,72.38,796.65,70.47ZM431.72,224.88c-15.29.23-26.77,5-36,15.4-3.65,4.15-4.62,8.72-4.26,13.69.4,5.54,4.84,8.14,10.05,6.28a19.52,19.52,0,0,0,4.47-2.36c3.41-2.39,6.57-5.15,10.11-7.31,2.94-1.78,6.12-4,9.8-2.88a32,32,0,0,0,7.66,1.18c9.42.5,17.7,3.34,24.57,10.26a10.13,10.13,0,0,0,15.85-1.7c2.13-3.4,1.37-10-1.53-13.61-3.68-4.55-8.47-7.69-13.59-10.29C449.82,228.94,440.79,224.09,431.72,224.88ZM222.91,355.37c.16-13.13-.86-15.94-5.6-25.69-2.57-5.29-7.54-7.69-11.28-11.52-2.78-2.84-6.74-2.9-10.12-.67s-3.66,6.19-3.09,9.76c2.29,14.25,4.94,28.44,5,42.95,0,5.24,2.26,9.93,5,14.17a9.7,9.7,0,0,0,15.89.33c3.76-5.35,5.77-11.37,4.75-18A63.8,63.8,0,0,1,222.91,355.37ZM95.3,322.52c.81,3.34.33,6.54,3.06,8.69,6.39,5,13.66,3.62,18.38-3.19,4.58-6.62,9.21-13.39,16.61-17.27,5.16-2.7,10.51-5,15.82-7.42,4.9-2.22,7.55-6,6.66-9.75-1.93-8.11-14-14.11-21.64-10.87-7.94,3.36-14.94,8.36-22.5,12.39C100.57,301,98.11,312.07,95.3,322.52ZM754.83,275.4c-1.8,4.64-5.62,7.3-7.66,11.28-2.7,5.26-.06,18,4.7,21.5,1,.74,2.81,1.09,2.57,2.59s-2,1.49-3.12,2c-7.5,3.28-9.33,8.82-5.66,16.14,2.5,5,6.83,7.3,11.77,8.83,5.4,1.68,10,4.42,12.73,9.54,2,3.73,6.21,5.55,7.75,9.62.3.8,1.29.69,2.09.66,2.88-.1,4.11-1.78,4.44-4.46.71-5.62-1.43-10.48-4.19-15.08a42.63,42.63,0,0,0-7.78-9.6c-3.74-3.44-4.74-8.76-7.05-13.18-1.67-3.18-1.26-4.79,1.18-6.82,3.8-3.16,5-7.32,4.7-12.21-.69-10.18-4.06-14.79-13.79-18.06C756.2,277.71,755.81,276.65,754.83,275.4ZM820.54,378c.06-3.26-1-5.68-2.86-6.33-2.85-1-4.66,1-6.48,2.63a27.83,27.83,0,0,0-1.92,2.46,12.06,12.06,0,0,1-18.48-.66c-2-2.52-4.77-4.59-8-4.07-4.23.68-8.81,1.49-10.26,6.78-.93,3.42-1.75,6.77-.79,10.36,1.66,6.11,3.49,12.14,3.58,18.64.06,4.9,2.83,9.81,7,11.5,4.52,1.83,10.48,2.55,15.06,1.2,8-2.33,11.41-14.77,7.23-22.11-2-3.45-1.46-5.36,2.14-7.19a29.46,29.46,0,0,1,5.09-1.93C818,387.52,820.42,384.4,820.54,378Zm71.17-8a22.24,22.24,0,0,0-1.33-8c-1.07-2.76-3.32-3.25-6.07-3s-3.19,2.16-3.33,4.35a29.36,29.36,0,0,0,.9,8.51c.49,2.17,0,4.1-1.94,5.06-7.2,3.56-11.86,10.47-19,14.1a4,4,0,0,0-2.12,3.52c-.26,3.38-.3,6.66,1.39,9.88,4.4,8.34,6.73,17,5,26.68-1.32,7.43-.8,15,.19,22.51.22,1.63.75,3.08,2.68,3.38s2.77-1.11,3.29-2.64c1.46-4.31,2.88-8.61,3.91-13.07,2.11-9.16,2.47-18.56,4.24-27.75,2.17-11.24,5.87-22.16,6.74-33.65.09-1.28.29-3,1.65-3.33C891.7,375.53,891.29,372.44,891.71,370ZM855,259.69c-10.27,2.93-22.55,1.51-30.13,12.24-.49.71-1.57,1-2.17,1.63-3.95,4.28-7,9-7,15.12,0,2.84,1.52,4.49,4.13,5.49s4.62.08,6-2.08,2.42-4.3,3.6-6.47c.62-1.13,1-2.53,2.39-2.93,7.85-2.27,15-6.91,23.86-5.64a84.25,84.25,0,0,1,20.17,5.33c4.33,1.78,6.79,5.89,8.79,10.11.86,1.83,2.24,3.43,4.55,2.91,2.47-.56,2.92-2.81,3.12-4.87a6.76,6.76,0,0,0-.62-3.79c-2.94-5.19-5.42-10.84-9.29-15.25C875.38,263.55,865.43,261.44,855,259.69Zm-79.17-235c6,4.05,11.09,5.5,16.44,1,1-.87,2.28-.11,3.3.39,4.26,2.1,6,1.16,6.06-3.46q.36-17.58.68-35.16a21.86,21.86,0,0,0-.19-5.06c-.38-1.76-1.84-3.69-3.53-2-3.09,3.19-5.54,2.33-8.42,0-.72-.58-2-.49-3-.67-6-1-12.17-.25-18.2-1.48-2.83-.59-6.44,2.08-6.35,4.45.12,3.39,2.62,3.76,5.26,3.78,3.51,0,7.07.36,10.53-.07s3.89,1,3.76,3.91c-.37,8.46-.66,16.92-.75,25.39C781.33,19.71,781.27,23.4,775.78,24.68ZM412.35,180.44c1.83,3,2.12,5.5.39,8.41-2.53,4.28-1.14,9.56-3.13,14.23-.62,1.48-2.91,5.53.14,7.37,3.38,2.05,2.25,4.44,1.11,6.57s-.59,3.22,1.05,4.5c.92.72,1.7,2,2.92,1.22,1.62-1.1,1.38-3,1.08-4.67-1.16-6.3-.38-12.67-.82-19-.61-9,4.91-14.36,12.15-18.31a5.16,5.16,0,0,1,6.18.72c1.38,1.41,2.09,1.11,3.58.51,7.36-3,20.8,4.76,21.93,12.63.42,2.9,1.2,5.77.22,8.81a22,22,0,0,0-.15,14,18.18,18.18,0,0,1,.91,4.56c.11,1.72.5,3.3,2.35,3.51a3.74,3.74,0,0,0,4-2.56c.72-1.93.81-4.13,1.73-5.92a6.24,6.24,0,0,0-.55-7.22c-2.43-3.27-3.07-7.12-2.9-11,.39-8.55-3.85-15.29-9.13-21-4.13-4.46-9.65-7.81-16.68-6.17-2.44.56-5.17.82-7.63-.57-.73-.42-1.85-.5-2.1.24-.88,2.63-3.35,2.56-5.26,3.5-1.75.85-4,1.68-4.61,3.39C417.75,181.91,416,183,412.35,180.44Zm-40,30.93c-.32,0-1,0-1.61,0-1.66.13-3.39.64-3.48,2.46-.09,1.66,1.75,1.66,3,1.85,2.69.41,5.37,1.15,8.13.39a2.21,2.21,0,0,1,2.23.29c2.8,2.65,6.15,5.4,7.63,8.53,1.85,3.9,4.76,4.64,7.87,5.92,1,.39,2.11,1,2.85-.14.89-1.32.1-2.52-.88-3.44-1.6-1.5-3.72-2.37-4.89-4.4-2.22-3.83-5.7-6.38-9.47-8.41-2.16-1.17-3.16-2.62-2.9-5,.37-3.4-.73-6.39-2.31-9.31a26.73,26.73,0,0,0-11.87-11.85c-1.89-.93-5.85-3-3.41-7,.53-.89.3-1.51-.81-1.51-.79,0-1.35-.24-1.42,1.26-.19,3.68-2.29,5.85-6.28,5.84s-7.59,1.47-11,3.46c-3.66,2.12-4.57,1.64-4.95-2.72a11.44,11.44,0,0,0-3.86-7.82c-.81-.73-1.78-2.07-2.92-.87-1,1-.22,2.37.64,3.11,3.44,3,4.81,6.35,2.85,10.86-.29.67-1.42,2.71.21,3.44,2.58,1.14.81,2.11.12,3.16a18.55,18.55,0,0,0-2.91,14.85c.61,2.62.19,3.83-2.76,3.15-.94-.21-2.2,0-2.11,1,.14,1.88,2.51,2,3.44,3.41a2,2,0,0,0,2.49.51c1.27-.85.94-2.22.84-3.53-.71-9,2.28-16.46,9.82-21.58,6.81-4.63,13.89-1.86,20.78.16,5.5,1.62,7.42,6.57,9.71,11.07C376.34,211.19,375.68,212.37,372.33,211.37ZM842.2,395.49c.51-5.17-2.61-6.94-5-9-1.8-1.54-4.23-3.51-6.56-2.43-2.61,1.22-2.56,4.41-2.24,7a70.94,70.94,0,0,1-1.5,26.9c-1.89,7.37,5.58,14.87,11.89,12.52,4.22-1.58,6.37-5.53,9.07-8.78.85-1,.28-2.19-.33-3.27-1.11-2-2.52-3.91-4.49-4.75-3.74-1.62-4.06-4.3-3.29-7.65C840.66,402.12,841.57,398.21,842.2,395.49Zm-648-227.61c-.13-2.14-1.11-4.61,2.17-4.93,1.08-.11,1.89-.78,1.47-1.79-.69-1.64-1.8-.36-2.53.06-2.26,1.27-4.28,3.12-6.66,4-4.51,1.66-7.64,4.82-10.42,8.44-2.93,3.81-2.85,3.89-5.13-.08a6.35,6.35,0,0,0-2.28-2.6c-4.51-2.58-8.07-4.68-7.35-11.78.48-4.84,1-11.19-3.69-16.36-2.64-2.92-5-5.76-8.49-7.49-5.74-2.86-10.72-.77-15.42,2.63-4.18,3-8.51,7.76-6.53,12.7,2.09-3.12,2.72-7.13,8.36-7.52,2.39-.17,4.49-4.88,7.85-.9,4.37-2.55,4.71,1.21,5.92,3.73.78,1.63,2.47,1.75,4,2.08,2.22.48.64-2,1.54-2.35,5.8,7.71,1.49,17,4.57,25.21,1.12.32.4-1.66,1.93-1.64,4,.06,10.86,5.79,10.8,9.71,0,1.4-.5,3.52-2.83,2.36-3.58-1.78-7.7-1.26-11.31-2.9-.76-.34-2.29-1-2.65.4-.29,1.1-.65,2.69.77,3.53,3.35,2,5.93,5.87,10.69,4.38,0-1.74-2.2-2.5-2.06-4.54,3.66,0,6.82,1.36,7.8,4.76.71,2.45,2.27,2.88,4.22,4.22-.15-3.12-1.95-4.73-3.34-6.55-.78-1-1.91-2-.87-3.42,3.32-4.58,5.82-10,12-11.7,1.69-.48,3.58-.56,4.69-2.76S193,167.53,194.18,167.88ZM176.74,71.42c-.17-8.58.24-17.18-.77-25.72-.21-1.82-.12-4.57-2.66-4.49-2.06.07-1.8,2.68-1.82,4.2-.19,14.2-3.1,28.27-1.25,42.6a211.06,211.06,0,0,1,1.9,29.11,13,13,0,0,0,.26,2.71c.19.86.4,2,1.55,1.94s1.1-1.29,1.13-2.15c.28-8.54.07-17,1.42-25.6C177.67,86.66,176.74,79,176.74,71.42Zm583,47.89c.49.08,1,.2,1.45.25,5.57.5,11.27-1.54,16.76.87a2,2,0,0,0,1.48-.29c2.56-1.47,5.46-1.61,8.26-2.13,6.51-1.22,13-2.86,19.59-3.33,3-.22,3.56-2.58,3.26-4.8-.36-2.74-2.42-2.18-4.53-1.79-6.24,1.13-12.52,2.07-18.82,2.9-3.53.46-6.65.08-6.27-4.87.09-1.22-.5-2.8-2.26-2.55-1.58.23-1.79,1.66-1.9,3s.62,2.15,1.33,3.12c1,1.37.6,2.68-1.11,2.83-3.07.27-6.16.94-9.17.91C762.55,113.38,761.26,113.93,759.72,119.31ZM335.35,172.44a18.38,18.38,0,0,0,.61-11c-2-7.7-4.29-15.31-9.54-21.76-4.54-5.55-6.39-6.24-12.69-2.47a10.39,10.39,0,0,1-2.44,1.19c-5.26,1.43-8.55,5.24-11.18,9.6-1.26,2.09-2.35,2.75-4.89,2.48-8-.86-17,6.8-17.07,14.87,4.52-10.82,12.8-14,22.66-11.06,7.35,2.16,10.06,9.24,11.39,17.08,2.52-7.33-2.85-16.92-9.88-19.81-.72-.29-2-.13-2-1.47,0-1.76,5-6.28,6.75-6.59,4.31-.74,8.58-1.26,13.18.48-1.18-2.79-4.78-1.44-5.06-4.44,6.13.16,14,5.64,15.79,11.64C333,158.1,335.31,165.06,335.35,172.44ZM153.63-28.94c-2,11.09-.6,109.91,1.61,113.63C156.72,77.16,155.32-21.89,153.63-28.94ZM41.73,154.18c0-1.63-.71-3-.21-4.41s-.46-2-1.7-1.73c-2.13.44-4.76.72-5.7,2.71-.85,1.83.66,3.68,2.29,5a8.25,8.25,0,0,1,1.13,1.08,1.71,1.71,0,0,1,.42,2.13c-.52.79-1.13.07-1.69-.15-1.72-.7-2.57.32-2.74,1.73s-1,4.27,0,4.17c2.49-.23,4.51,2,6.69,1.1s3.13.11,4.2,1.5c4.48,5.86,5.89,4.27,11.78.89a2.07,2.07,0,0,0,1.13-2.29c-.22-1-1.19-.8-1.9-1-2.68-.91-5.89-1.25-5.82-5.24,0-.63-.49-.9-1-.89-1.82,0-2.82-1-3.6-2.48-.31-.59-.89-.94-1.56-.24-3.32,3.43-4,.21-5.11-2.2ZM337.22,92.49a10.73,10.73,0,0,0-6.31,2.86c-2.09,1.84-2.1,5.36-5.19,6.53-.58.22-.4,1.31.35,1.52,2.58.68,5,2.75,7.7-.47,3.28-3.93,6-3.75,8.64.38,1,1.64,1.69,1.53,2.93.67a18.82,18.82,0,0,1,14.38-3.24c1,.18,2.13.46,2.76-.72s-.12-2.26-.85-3.16c-1.07-1.33-2.61-1.48-4.22-1.59-3.94-.28-7.7.87-11.53,1.41-1.62.22-2.68.16-3.42-1.53C341.49,92.91,339.31,92.69,337.22,92.49Zm-54.55,37.19a11.38,11.38,0,0,0,5.34-1.16c.94-.42,2.12-.81,1.56-2.21-.48-1.2-1.59-1.21-2.66-1-.76.16-1.5.45-2.25.67-2.32.71-3.18-.15-2.78-2.5.53-3.09.81-6.06,4.5-7.5,2.38-.93,2.85-3.46,1.53-5.65-1.5-2.49-3.67-1.92-5.75-.58a9.13,9.13,0,0,0-3.88,5.21c-.37,1.23-.52,2.73-1.94,3.2-2.73.89-4.48,3-6.52,4.79-1.2,1-2.75,2-1.94,3.79s3,1.91,4.43,1.33c2.48-1,4.45-.39,6.63.64A18.58,18.58,0,0,0,282.67,129.68ZM63.16,145.42c.91-31.39.35-62.77-.44-94.14l-1.9,0C60.6,82.69,61,114.07,63.16,145.42ZM910.43,339.34c2.91,0,3.75-1.46,2.27-3.95a11.8,11.8,0,0,0-7.49-5.24A17.83,17.83,0,0,1,895,323.61c-1.34-1.73-3.32-1.22-5-.57-2.18.82-.78,2.25-.42,3.53a10.33,10.33,0,0,1,.41,3.07,5.4,5.4,0,0,0,3.84,5.72A93.56,93.56,0,0,0,910.43,339.34ZM345,115.39c-.32-1.53-.14-3.23-1.86-4.07a2.7,2.7,0,0,0-3.52.72c-1.53,1.95-2.22.29-2.87-.62-1.29-1.83-2.62-3.63-4.65-4.61a3.33,3.33,0,0,0-4.7,1.42c-1,1.87,0,3.46,1.92,3.89s2.24,2.37,3.46,3.44c1.52,1.34,4.07,2.58,4.26,4.1.24,1.88-2.65,3.17-3.44,5.32s-2.43,2.49-4.45,1.58a14.85,14.85,0,0,0-3.28-1.19c-1.19-.22-2.12.29-1.69,1.76s8,4.4,9.34,3.64c5.58-3.13,7.37-9.33,11.18-13.9C345,116.52,344.89,115.87,345,115.39Zm456.21,24,2.51.36c1,.13,1.89.08,2.3-1a2.39,2.39,0,0,0-.89-2.76c-2.93-2.77-9.69-3.93-13.47-2.26s-7.34,0-7.78-3.76c-.11-.87.07-2.09-1.2-2-1.09,0-1.25,1.19-1.36,2.1-.22,1.89,0,3.79-1.29,5.55a4.39,4.39,0,0,0,.27,5.49c1.52,1.81,4.12,1.13,6.17,1.8.67.22.6-.46.65-1,.27-3.79,3-4.12,5.83-3.71S798.23,139.43,801.19,139.34ZM762,82.33c-2.92-1.26-4.18-3.49-5.31-6.1a8,8,0,0,0-7.41-4.86c-3.85-.15-6.57,3.2-5.24,6.73a6,6,0,0,1,0,5.13A3,3,0,0,0,745.23,87c1.73,1.17,2.49-.55,3.46-1.49s1.91-3.37,3.55-2.38C755.77,85.32,758.63,82.58,762,82.33ZM290.31,233.07c1.45-2.52,3.18-2.11,5.47-1.28,5.07,1.82,8.61,5.64,12.69,8.77,1.12.86,1,1.65.09,2.58-.68.72-1.84,1.63-.69,2.57s1.84-.5,2.66-1a10.06,10.06,0,0,0,2.13-1.71c3.27-3.72,6.69-7.15,11.57-8.84A28.43,28.43,0,0,0,330,231c1-.62,1.85-1.7,1.19-3s-2-.9-3.06-.36-1.74,1.16-2.64,1.67c-4.16,2.37-6.67,6.83-11.45,8.61-2,.76-3,.9-4.67-.47-4.51-3.66-8.68-7.9-14.59-9.47-1.62-.44-3.11-.67-4.37.56S289.2,231.3,290.31,233.07ZM132.93,112.77c-.93.48-.76,1.36-.86,2.08-.44,3.16-.33,5.84,4.16,4.93,2.7-.55,5.27-.44,7.32,1.91a2.94,2.94,0,0,0,2.2.64,7.72,7.72,0,0,1,7.84,3.86c.87,1.33,2.15,1.3,2.48-.31.86-4.13,2.06-8.25,1.39-12.54a2,2,0,0,0-2.14-1.86c-1.13.07-1.3,1-1.64,1.91-1.08,2.82-1,5.78-.92,8.79-1.78,0-2.3-1.48-3.34-2.09-4-2.31-7.14-7.72-12.9-3.45-1.08.8-1.58-.07-2-1S134.12,113.37,132.93,112.77Zm599.7,22.7c.88-1.55,1.85-3.05,2.62-4.66,1.86-3.89,1-7.85-1.15-11.07-3.2-4.79-14.21-5.84-18.89-2.23-1.43,1.1-2.29,2.75-1.37,4.44.65,1.18,2.42,1,3.13.17,3.33-3.72,7-1.49,10.49-.67,2.91.69,4.63,2.75,5.13,6.09C733,130.28,731.57,132.73,732.63,135.47Zm-236,112.2a6.29,6.29,0,0,0-2.26-3.62A34,34,0,0,0,481,236.33c-4.84-1.41-9.91-2.18-14.1-5.32-.55-.41-1.15-1.34-1.76-.07-.39.83-.72,1.65.12,2.49,3.69,3.67,7.63,6.76,13.14,7.2A20.66,20.66,0,0,1,494,249c.47.62,1.15,1.18,2,.76C496.67,249.38,496.71,248.68,496.64,247.67ZM891.11,77.53c1.36-.49,1.8.52,2.44,1.08s1.35,1.47,2.28.59.34-1.72,0-2.54A2.1,2.1,0,0,0,893,75.3c-3.1.91-6.28,1.57-9.32,2.61-1.78.61-3.58,1.42-3.39,4.08.11,1.61-1.53,1.86-2.89,1.91a22.39,22.39,0,0,0-3.48,0,3.32,3.32,0,0,0-2.61,2.62c-.24,1-.23,2.19.86,2.76,1.24.66,2.58,1.37,4,.4.53-.36,1-.8,1.51-1.21,1.22-1,2.51-2.94,3.36.34.18.68,1,.79,1.65.7a1.18,1.18,0,0,0,1.12-1.35c-.63-3.88,2.79-4.33,4.9-5.87C890.41,81.12,892.56,80.21,891.11,77.53ZM821.89,324.05c0-4.22-2.9-8.19-5.8-8s-5.37,3.94-5.18,8.05c.2,4.39,2.83,7.89,6,7.95C819.85,332.1,821.92,328.79,821.89,324.05Zm72.22,55.4c0,3.83,4.53,8.23,8.22,8.13,2.83-.07,4.38-2.55,3.26-5.25-.69-1.68-1.38-3.36-2.13-5-1.21-2.71-3.58-3.4-6.15-2.89S894.42,377.42,894.11,379.45ZM368.26,115c-1.3.14-1.32,1-1.33,1.77a19.78,19.78,0,0,0,.62,6.56c1.62,5,5,9.09,7.05,13.85.49,1.15,1,3,2.39,2.6s2.07-2.2,2.18-3.83a3.05,3.05,0,0,0-.23-1.14c-2.22-6.82-7.88-11.88-9.69-18.92C369.15,115.45,368.53,115.19,368.26,115ZM83.69,374.24c0,5.42,3,8.22,7.44,7.4,2.18-.41,3.14-1.73,2-3.56a19.57,19.57,0,0,1-3.32-10.93c0-1.5-1.31-2.18-2.7-2.3-1.67-.13-2.24,1.09-2.45,2.44C84.25,369.72,84,372.16,83.69,374.24Zm570-228.86c-1.65-6.73-3.59-12.76-9.7-16.19-3.16-1.78-6.58-3.13-8-7a1.12,1.12,0,0,0-1.76-.27c1.13,6.64,3.85,12,10.79,14.48,2.62,1,5.06,2.64,5.58,6C650.79,143.66,651.6,144.8,653.64,145.38Zm-91.2,66.72c.06-.24.23-.5.18-.7-.63-2.6-2.49-5.43,1.93-6.72.91-.27,1.45-1.39,0-2.67-2.74-2.42-7.73-1.71-8.81-6.36a1.91,1.91,0,0,0-1.08,0c-2.28,1-4.6,2.36-2.76,5.17,2.47,3.79,4.75,7.81,8.44,10.65C560.94,212,561.55,212.59,562.44,212.1ZM684.88,34.34h.26a56.67,56.67,0,0,0-.31-5.84,3.61,3.61,0,0,0-3.9-3.14c-1.52,0-3.19.55-3.22,2.2-.09,4.29.23,8.61,2.36,12.48a3.06,3.06,0,0,0,3.22,1.8c1.68-.36,1.5-1.93,1.57-3.19C684.94,37.21,684.88,35.77,684.88,34.34Zm-211,170.48c-1,2.21.36,5.31-1.67,6.65-2.56,1.7.44,2.54,0,3.73,1.5.36,1.85-1.08,2.54-1.79,1.71-1.75,2-4.1,2.45-6.44.83-4.71,3-9,4.42-13.54.3-.92.86-2.49-.85-2.92-1.9-.49-2.2,1.33-3,2.37-.64.84,1,2-.29,2.79C474,197.83,472.1,200.61,473.91,204.82ZM344.49,61.87c-4.3-.11-8.7,5.09-8.14,9.64.2,1.68.84,1.29,2,.67,3.7-1.93,6.12-6.63,11.44-5.21.8.21,1.92-.94,2.16-2,.31-1.31-1-1.63-1.86-2.12C348.39,61.88,346.43,61.92,344.49,61.87ZM873.8,72.05a7.31,7.31,0,0,0-4.52.85c-1.51.89-3.75,1.67-2.84,4,.79,2,2.69,2.18,4.66,1.38a7,7,0,0,1,4.62-.06c1.78.51,3.78,1.35,4.29-1.44.42-2.29-.8-3.71-3.12-4.12ZM29.23,125.41c3.6-1.24,6.43-3.09,9.79-2.39,3.13.65,6.3.73,8.9,3.32,2.27,2.27,4.69,4.29,6.48,7s1.43,5.94,2.43,9.4c1-9.91-1.95-15.76-9.46-19.69C41.13,119.85,34.8,120.5,29.23,125.41ZM382.17,289.47c1.39-.31,3.72.63,4.18-1.47.34-1.57-1.72-2.48-3-3.22-2.59-1.54-5.66-1.76-8.57-2.33-2-.4-2.73,1.81-3.68,2.89-.68.79,1.19,1.77,2.21,2.12C376.16,288.42,379,289.48,382.17,289.47ZM767.44,83.62c-1.41.07-3.13-.19-3.57,1.59a8.38,8.38,0,0,1-3.57,5.55c-1.31.88-1.81,3.33-.25,4.41,1.19.82,2.29-1.14,2.64-2.15.86-2.46,2.49-3,4.79-2.86s4.29-.43,4.28-3.23S769.66,83.71,767.44,83.62Zm91.42,16.24a26.18,26.18,0,0,0,4.81-.85c2.24-.78,3-2.78,2.8-5-.1-1.45-1-2.77-2.46-2.34-2.92.85-6.14,1.42-7.88,4.42-.5.86-1.31,1.77-.61,2.84S857.29,99.83,858.86,99.86ZM378,62.07c.22-2.21-1.22-3.89-1.84-5.83-1.12-3.55-2.5-1.65-3.67-.28-1.47,1.71-.83,4-1.19,6-.26,1.45-1.42,4.34,1.07,3.75C374.08,65.33,378.57,66.83,378,62.07ZM580.13,161.8c3.37-.83,6.5-1.71,6-5.3-.72-5-4.06-8.24-8.83-9.94-.92-.33-2-1.19-2.7.17a2.67,2.67,0,0,0,.63,2.89c1,1.33,2.69,1.49,4.08,2.16,5.36,2.56,5.71,4.6,1.5,8.68A7.11,7.11,0,0,0,580.13,161.8ZM18.64,165.33c1.26,1,2.22,1.86,3.25,2.6a10.3,10.3,0,0,0,1.79.78c3.94,1.67,6.12,0,6.16-4.15,0-2.7-.7-5.18-1.15-7.81.11,3.46-3.12,5.44-3.24,9.76C23.13,163.16,21.08,163.49,18.64,165.33Zm725.49-59c2.35.12,5.47,1.26,5.68-2.53.17-3-2.2-3.51-4.88-3.52-3,0-4.76,1.27-4.9,4.2C739.84,108.16,742.51,106.21,744.13,106.31ZM117,188.61c.06-3.41,1.56-4.64,4.53-3.48,1.49.59,1.57-.63,1.87-1.26a15.74,15.74,0,0,1,5.28-6.12c2-1.38,3.44-1.17,3.57,1.69,0,.68-.36,1.56,1.13,2.24.14-2.41,1.22-5.2-.63-6.51s-4.18.31-5.9,1.86a4.68,4.68,0,0,0-.55.54c-2.3,2.82-5.67,4.1-8.66,5.84C113.8,185.61,113.66,185.37,117,188.61ZM11.51,165.74c1.51-.54,2.71-1.64,4.39-2.05,2.15-.51.65-2.53.49-3.95-.27-2.45,3.71.73,3.1-2.3-.18-.92-.32-1.9-1.38-2.08-1.27-.22-2.7-.39-3.53.9C12.76,159.09,10,161.64,11.51,165.74Zm301.71-64.4a13.48,13.48,0,0,0-11.91-5.12c-1.25.06-2.36.45-2.31,2a2,2,0,0,0,2,2C304.7,100.57,308.39,100.89,313.22,101.34ZM84.42,28.83a12.63,12.63,0,0,0,0-1.57c-.32-2.1.14-5.67-1.89-5.7C80,21.52,80.85,25,80.44,27a6.54,6.54,0,0,0-.13,1.16c0,2-.75,4.92,2,5.05C85.52,33.4,84,30.21,84.42,28.83Zm148.73,166a17.08,17.08,0,0,0-.43-3.55c-.5-1.41-1.59-2.57-3.25-2.08s-1.8,2.09-1.38,3.56c.64,2.23-.06,5.16,2.89,6.26.81.3,1.52-.39,1.73-1.2A27.33,27.33,0,0,0,233.15,194.78Zm633.44-84.46c-.07-1.85-.71-3.08-2.56-2.88-2.16.24-4.19,1-4.29,3.59-.07,2,.57,3.65,3,3.64C865.83,114.65,865.91,112.13,866.59,110.32ZM94.06,201c0-5.55,0-10.68,0-15.82,0-.74-.32-1.69-1.27-1.69s-1,.94-1.11,1.73c-.61,5.07,1.33,9.92,1.29,14.94C92.94,200.38,93.5,200.6,94.06,201ZM333.51,82c-2.37.27-4.43,1.08-4.48,3.85,0,1.58.56,3.33,2.7,3,2.68-.4,4-2.42,4.35-4.86C336.35,82.19,335,81.8,333.51,82ZM158,95.41c-.31-1.44-.28-3.69-2.47-3.61-2.51.09-3.29,2.25-3.21,4.51.07,1.91.65,4.11,2.89,3.87S157.86,97.67,158,95.41Zm660.76,16.41c1.57-.48,4.19.2,4.24-2.67s-2.54-2.91-4.48-3.23c-2.14-.36-3.16,1.09-3.19,3S816.52,111.92,818.73,111.82Zm-64.59,17.79a5.15,5.15,0,0,0,2.05,4.31c.73.65,1.53,1.75,2.63.78a1.85,1.85,0,0,0,0-2.81c-3.17-2.6-2.76-5.23-.37-8,.57-.67.83-1.41-.06-2-.6-.38-1.6-.17-1.68.39C756.34,124.9,753.86,126.71,754.14,129.61ZM274.52,150.29c-.22-2-.25-3.37-1.89-3.77-.64-.16-1.62-.27-1.73.36-.47,2.61-1.88,5.18-.73,7.92.36.86,1.25,1.31,1.7.29C272.69,153.24,274.83,152,274.52,150.29ZM256.71,132c1.38-.41,3.6,0,3.3-2.27s-2.14-3.07-4.28-3c-1.69,0-3.23.63-3.08,2.61C252.84,131.74,255,131.7,256.71,132ZM241,218.83c4.7-1.35,8.59-2.6,12.69-2.58a1.34,1.34,0,0,0,1.45-1.47,1.31,1.31,0,0,0-1.65-1.23C249.59,215.07,244.73,214.28,241,218.83ZM172.1,129.27c.21,1.62.41,3.16.62,4.7.16,1.14.62,2.09,2,1.84,1.11-.22,1.28-1.18,1.17-2.15-.17-1.54-.36-3.08-.62-4.61-.21-1.2,0-3.1-1.7-2.93C172,126.26,172.23,128.08,172.1,129.27Zm665.57-27.1a3.36,3.36,0,0,0-3.44-2.93,2.37,2.37,0,0,0-2.74,2.55c0,1.84.89,3.32,3,3.22A3,3,0,0,0,837.67,102.17ZM381,170.88c-1.31.21-2.34.32-3.34.55-1.35.31-3.47.48-3.37,1.95.13,1.92,2.18.85,3.42,1a18.08,18.08,0,0,1,2.64.5c2.4.67,2.11-1.44,2.38-2.52C383.06,170.87,381.64,171,381,170.88Zm-87.74,42.23c2-2.05,1.76-4.36,2.19-6.39a1.7,1.7,0,0,0-1.47-2.27c-1.46-.12-2,1-2.11,2.21A13.3,13.3,0,0,0,293.23,213.11ZM378.79,41.33c-.42-1.52-1.09-2.8-2.78-2.78-1.41,0-2.83.93-2.29,2.32s.63,3.76,2.53,3.82C378,44.74,378.17,42.63,378.79,41.33ZM912.62,390.7c2.09,0,3.76.6,3.54-1.23s-1.94-2.93-3.82-3.25c-1.26-.21-2.41.21-2.39,1.74C910,390.41,911.63,390.82,912.62,390.7ZM500.46,210.16c-5,1.13-6.71,5.24-10,7.45C494.43,216.25,498.11,214.52,500.46,210.16Zm-88-33.54c3.22-4.39,4.29-9.63,3.08-13.88C412.59,166.8,414.29,171.83,412.49,176.62ZM753.8,149.35c-.33-1.26-.84-2.33-2.32-2.18-1.92.2-3.61.79-3.61,3.21,0,1.42.89,1.81,2.08,1.51C751.5,151.49,753.41,151.53,753.8,149.35ZM741.36,92.79c.14,1.22-.08,2.94,1.95,3,1.55.07,2.29-1,2.23-2.55s-.55-3.35-2.37-3.51S741.58,91.39,741.36,92.79ZM686,126.08c.84.16,1.14-.3,1.22-1,.15-1.46-2.73-4.46-4.25-4.41-.89,0-1.6.47-1.5,1.36C681.79,124.62,684,125.27,686,126.08ZM310.71,193.29c2.5-3.35,2-7.52,3-11.28a1.46,1.46,0,0,0-.82-1.93,1.79,1.79,0,0,0-2.08.56c-.61.68-.74,1.44.11,1.94,1.41.83.86,2,.64,3.07C311.1,188.14,311.54,190.75,310.71,193.29ZM565.49,180c3.57,3.52,8.07,6,11,10.19C575.16,184.31,569.93,182.54,565.49,180Zm36.34,18.38c0-3.31,0-5.92,0-8.54,0-.66-.23-1.4-1-1.47a1.23,1.23,0,0,0-1.38,1.47C600.07,192.42,599.16,195.45,601.83,198.34ZM56.41,273.88c-.08-1.52-.67-4-2-4-2.23,0-.4,2.23-.81,3.41a1.13,1.13,0,0,0-.06.76c.48,1-1.08,3,1.09,3C56.2,277.13,56.22,275.35,56.41,273.88Zm711-250.47c-1.33.06-2.35.49-2.2,2a1.88,1.88,0,0,0,2.12,1.79,2.29,2.29,0,0,0,2.48-2C769.88,23.72,768.54,23.54,767.37,23.41ZM795.57,84a1.53,1.53,0,0,0-1.82,1.61c0,1.52.63,2.83,2.36,3A1.65,1.65,0,0,0,798,87C798,85.39,796.84,84.55,795.57,84ZM594.64,101c-1.42.32-1.77,1.37-1.66,2.65s.86,2.28,2.22,2.21c1.55-.08,1.75-1.32,1.64-2.59S596.15,101.06,594.64,101ZM883.48,70.38c-1,.06-1.77.46-1.79,1.57a2.68,2.68,0,0,0,2.12,2.89c1.32.24,1.78-1,1.81-2A2.24,2.24,0,0,0,883.48,70.38ZM787.34,282.87c-.08-.91-.34-2-1.41-1.94A3.36,3.36,0,0,0,783,283.1c-.31,1.08,1,1.82,2,1.94C786.42,285.22,787.1,284.23,787.34,282.87Zm25.54-51.26c-1.16,0-2.17.38-2.1,1.72a1.86,1.86,0,0,0,2.16,1.78c1.06-.06,2.27-.25,2.17-1.65C815,232.28,814,231.82,812.88,231.61ZM369.27,82.47a3.3,3.3,0,0,0,2.06-2.93c.16-1-.3-1.89-1.47-1.68a2.55,2.55,0,0,0-2.16,2.75A1.66,1.66,0,0,0,369.27,82.47ZM41,170.05a3.32,3.32,0,0,0-3.39-1.61c-.72.06-1.81.31-1.59,1.21.38,1.54,1.86,2,3.26,2.24C40.31,172.06,40.89,171.39,41,170.05ZM653.52,148c.56,5.06.7,5.37,3.27,6.91A16.68,16.68,0,0,0,653.52,148Zm-287-42.72a.9.9,0,0,0-.55,1.4c.51,1.07.44,2.77,2.13,2.74.92,0,.92-1.11.81-1.85A2.62,2.62,0,0,0,366.51,105.26ZM200.17,147.62c-.8-.59-1.28.13-1.93.46a2.77,2.77,0,0,0-1.71,3.07c0,.28.45.75.68.75,1.42,0,1.11-1.49,1.69-2.23S200.72,149,200.17,147.62Zm602.54,64.57a2.31,2.31,0,0,0-1.91-2.4c-1.06-.18-1.11.82-1.19,1.57a2,2,0,0,0,1.81,2.48C802.46,214,802.61,213.1,802.71,212.19ZM768.44,75.89a2.22,2.22,0,0,0-2-1.32c-1,0-1.87.34-1.75,1.52s1.1,1.31,2,1.28C767.58,77.34,768.36,77.2,768.44,75.89ZM470.54,305.14c2.5.69,4,1,5.38,0a.72.72,0,0,0-.32-1.22C473.94,303.36,472.52,303.91,470.54,305.14Z" transform="translate(2.42 34.47)"/>
    <path d="M567.64-34.15c-1.86,1.41-3.74,1.54-2.07,3.39,2.59,2.87,5.73,3.79,7.77,2,2.55-2.26-.12-3.24-1.76-5.32,7.51,0,14.42,0,21.34,0,1.76,0,1.61,1.4,1.46,2.58-.24,1.93-.68,3.84-.83,5.78-.2,2.47-.26,4.51-3.86,4.21-2-.16-3.28,2.07-4,3.84s1,2.57,2,3.41c3.14,2.48,6.29,4.55,6.23,9.51,0,3,3.25,3.79,6,3.49,3.81-.4,7.52-1.29,11.45-.47,2,.41,4.26-.22,4.87-2.86s-1.79-7.8-4-8.68A25.62,25.62,0,0,0,609.6-14c-3-.84-4.45-2.82-3.72-5.85a14.18,14.18,0,0,0-.79-9.1c-1.52-3.73-.5-5,3.46-5.12,10-.28,10-.28,10.14,9.88,0,2.47,0,5-.13,7.42A9.92,9.92,0,0,0,620-10.44c1.73,2.57,1.67,5.67,1.85,8.67.23,4,.4,7.94,4.44,10.63,2.54,1.7,1.92,3.66-.94,4.68-2.08.73-4.09,1.67-6.21,2.26s-3.85,1.93-6.17-.44c-1.77-1.82-5,.29-5.22,3,0,.26,0,.52,0,.78-.12,2,.89,4.92-1.22,5.69s-3.68-1.75-5-3.47c-2.47-3.17-4.51-.83-5.42,1.07-1.6,3.38-3.88,4-7.2,3.52a9.74,9.74,0,0,0-5.69,1.1,2.62,2.62,0,0,0-1.6,2.49c0,1.24,1,1.76,2,2.13,2.27.83,4.65.42,7,.46s3.82,1,3.56,3.54-2,2.6-4.06,2.36c-8.28-1-16.66-.87-24.94-.89a115.92,115.92,0,0,0-16.6.89q-4.82.7-3.86-3.93a19.77,19.77,0,0,0-.42-9.27A24.23,24.23,0,0,1,544.15,14c1-5.16,1.18-10.24-1.11-15.24-1.32-2.9,2.06-8.7,5.65-10.06,1.46-.56,3-.87,4.11-2.12.94-1.08,3.16-1.91,1.77-3.69-1.18-1.52-2.88-.54-4.12.52-1.39,1.18-2.74,2.12-4.44.57-1.27-1.16-2.56-2.35-1.89-4.34a4.24,4.24,0,0,1,3.7-3c5.32-.88,5.83-2.13,3-6.79-.6-1-1.54-2.08-1.1-3.21.54-1.4,2-.72,3.13-.73C557.4-34.2,561.94-34.15,567.64-34.15ZM593.28,3.59c.32-1.75-.6-2.49-1.26-3.47-1.49-2.16-4-2.29-6-3.31-3.4-1.72-4.74-5.37-7.48-7.71-2.5-2.13-4.58-2.19-6.62.45-.63.81-1.25,2.24-2.21,2-3.25-.87-4.61,1.58-6.49,3.22A10.27,10.27,0,0,1,557-2.31c-2.39.15-5.23.68-5.15,3.59.07,2.55.78,5.5,4.37,6.05a6,6,0,0,1,3.51,1.52c2.25,2.74,5.32,2.71,7.84,1.73,6.25-2.43,12.09-.89,17.85,1.11a5.86,5.86,0,0,0,6.39-1.45C593.77,8.41,592.55,5.48,593.28,3.59Z" transform="translate(2.42 34.47)"/>
    <path d="M936,214.3c-2.05-6.09-5.89-9-12.16-8.73a13.9,13.9,0,0,1-7.11-1.89c-7.1-3.83-14.43-2.37-21.69-1a25.17,25.17,0,0,0-8.43,2.87c-1.92,1.16-4.39,1.68-4.18-2.34.12-2.39-2.24-3.34-4.79-2.09-.54.27-1,1-1.62.56-.85-.55-.5-1.44-.21-2.11,2-4.79,1.9-10.71,7.42-13.63.68-.36,1-1.45,1.41-2.26a30.75,30.75,0,0,1,6.34-9.68c5.32-5.13,6-12.55,9.17-18.75,1.62-3.18,3.36-6.43,4.14-10.05.65-3.06,6.7-4.61,10.4-3.88s3.75,1,5-2.65c3.26,1.4,5,5.4,8.53,5.86,7.27.94,7.78,5.94,7.77,11.6C935.92,175.55,936,194.92,936,214.3Z" transform="translate(2.42 34.47)"/>
    <path d="M290.41,78.52a50.2,50.2,0,0,1,6.25-3.16c4.78-1.65,10.14,1.12,12,6,.4,1,.46,2.7,2.07,2.24,2-.54,1.05-2.12.55-3.22-4-8.77-3.75-10.4-14.22-10.75,2.43-2.11,3-4.52,1.63-7.24a9.31,9.31,0,0,1-.75-6.1c.92-5.2.51-10.41,0-15.56a95.64,95.64,0,0,1,.25-16.76c.48-6.24-.19-12.52,1-18.71.27-1.43.35-3.08-.71-4.12C295.69-1.63,295.9-5,295.9-8.38c0-7.43,0-14.86-.12-22.28-.06-2.66.75-3.78,3.54-3.65a112.68,112.68,0,0,0,11.33,0c2.79-.14,3.71.93,3.51,3.62-2.08,28.62.15,57.29-1,85.93-.32,7.92.26,15.89.42,23.83a11.66,11.66,0,0,1-1.34,6.41c-2.38,4-4.62,4.33-7.77.89-.77-.84-1.31-1.78-2.39-.45-2.48,3.06-4.72,1.5-7-.29-.86-.67-1.82-2.19-2.93-1.19s0,2.37.8,3.36c1,1.22,2.49,2.57,1.37,4.08-1.37,1.88-3.62,2.88-5.83,3.66-.29.1-1-.34-1.21-.7-1.32-2.68-4.13-4-5.7-6.29-1.76-2.51-2.78-5.41-5.67-7.14a1.41,1.41,0,0,1,.73-2.6c2.84-.17,4.76-2,7-3.23C287.82,73.24,289.24,73.8,290.41,78.52Z" transform="translate(2.42 34.47)"/>
    <path d="M273.8,34.2c.78-13.39-1-26.8.58-40.19a7.51,7.51,0,0,1,2-4.91c2.18-2.13,2.32-4.31-.19-6.3a4.73,4.73,0,0,1-1.78-4.12c0-.91,0-1.82,0-2.73,0-10.14,0-10,10-10.07,2.95,0,3.54,1.18,3.53,3.67,0,7,0,14.05.08,21.08.12,19.78.26,39.56.31,59.33,0,2.12,1,5.95-3.61,3-1.59-1-1.58.78-1.55,1.65.14,3.25.5,6.48.63,9.73.11,2.89-4.83,8.38-7.63,8.37-2.18,0-1.26-1.94-1.27-3-.08-11.85-.05-23.69-.05-35.54Zm9.51,12.3h.92V25.56l-.92,0ZM284,13.69A17.87,17.87,0,0,0,284,4.23,13.18,13.18,0,0,0,284,13.69Z" transform="translate(2.42 34.47)"/>
    <path d="M470.37,88.43c2.92.16,5.43.28,7.95.43.77,0,1.84-.18,2.25.23,4.46,4.48,9.14,2.26,14.05,1,3.39-.89,4.52-2.66,4.33-5.79a32.54,32.54,0,0,1-.43-3.47c.07-1.34.73-2.32,2.31-1.44,2.24,1.25,3.4,5.18,2.05,7.38-1.21,2-1.89,3.41,1.09,4.36a1.22,1.22,0,0,1,.07,2.37c-3.63,1.12-1.73,3.13-.57,4.31,2.67,2.7,1.6,4.73-.59,6.81-3.85,3.66-14,2.87-15.28-2-.4-1.57-1.11-2.86.22-4.29,1.55-1.64.59-3-.91-3.78-1.69-.92-2.43.37-2.64,1.77-.64,4.3-4.95,2.47-7.41,4.57,2.81,1.89,5.46,3.76,8.2,5.48,2.48,1.56,4.3,6.82,3.58,10.84-.69,3.85-4.26,8.08-7.2,8.51-2.19.33-8.65-3.86-9.4-6.8-1.27-5.06-2.87-10.15,1-15.18,2.24-2.89,0-6.48-.55-9.69C472.23,92.24,471.25,90.61,470.37,88.43Zm7.91,8.45c1.36-.63,3.81.12,3.7-2.73-.07-1.74-.73-3.21-2.71-3s-4,.79-4.28,3.14C474.8,96.3,476.48,96.75,478.28,96.88Z" transform="translate(2.42 34.47)"/>
    <path d="M607.65,92.6c.25,1.29.12,2.07-.76,2.39a1.72,1.72,0,0,1-2.07-.74c-3.09-5.58-10.39-5.33-14.08-10.26-1.45-1.93-4.64-1.35-6.92-2.33-2.07-.89-3.51-1.55-2.42-4.55,1.33-3.7-3.17-2.75-3.68-2.5-2.83,1.35-5.69-.21-8.49.6-1.9.55-3.15-1.23-3.84-2.71-.81-1.76-1.28-3.63-2.86-5a1.64,1.64,0,0,1,0-2.46c.7-.79,1.43-.35,2.06.14,1.57,1.25,3.37,1.06,5.21,1.06,2.85,0,5.74,0,8.19,1.9.4.31,1.12.74,1.39.59,4.1-2.35,9.32-1.53,13.11-4.3,2-1.45,3.43-2.06,5.53-.77s2.51,2.83,1.44,5.23c-1.49,3.38.18,6,3.31,7.22,2.85,1.12,3.79,3,3.49,5.74C605.83,85.74,607.88,89.24,607.65,92.6Z" transform="translate(2.42 34.47)"/>
    <path d="M405.8,135.17a11.57,11.57,0,0,0-9.75-1.76c-2.9.72-6.44-3-6.27-7.08.17-3.91-1.25-7.92,1.53-11.88,1.56-2.23,2.78-3.56,5.34-3.41,3.65.21,7.17.58,10.2-2.4,1.47-1.43,3.09-.29,3.46,1.53.8,3.92.69,7.93-1.71,11.26C404.29,127.45,404.1,127.6,405.8,135.17Z" transform="translate(2.42 34.47)"/>
    <path d="M538.9,93c4.37-.93,6.78.27,6.52,5a3.51,3.51,0,0,0,2.17,3.46,37.48,37.48,0,0,1,6.61,2.79c2,1.23,2.89-1.26,3.17-3.17.67-4.61,6.93-7.82,10.4-4.94,2.3,1.9,1.52,5.31,1.66,8.1a3.83,3.83,0,0,1-3.06,4c-3.85,1-7.35,2.53-9.74,5.94a2.25,2.25,0,0,1-2.11.78c-2.82-.23-8.67-5.47-9.77-8.29C543,102.06,540.91,97.62,538.9,93Z" transform="translate(2.42 34.47)"/>
    <path d="M432.67,97.51c2.19-3.07.35-6.7,3.59-8.8,1-.62,0-1.75-.74-2.21-4-2.34-7.31-5.74-12-6.89-3.88-1-3.26-4.51-3.3-7,0-2.72,2.76-3.95,5.22-4.21,2.21-.23,3.25,1.34,2.92,3.57-.24,1.68-.59,3.34.25,5s1.92,3.33,3.84,2.09c5.53-3.56,10.25-2.32,14.23,1.79C445.43,88.68,439.82,93.18,432.67,97.51Zm10.09-16.34c-.19-1.4-1.24-1.52-2.31-1.39s-2.55.46-2.54,1.88,1.24,1.87,2.53,1.69S442.68,82.65,442.76,81.17Z" transform="translate(2.42 34.47)"/>
    <path d="M479.54,74.34c-2.51,0-4.41,1.29-6.23,2.85-.95.82-2.32,2-3,0-.37-1.1-3.29-2.3-.15-3.93,2.6-1.36,2.63-3.59.62-5.82-.7-.77-2.3-1.46-1.33-2.81.72-1,2-.78,3.24-.47,5.69,1.42,5.71,1.38,8.59-4,.34-.64.83-1.26,1.45-1a9.17,9.17,0,0,1,4.74,3.81c.93,1.51-.16,2.57-1.21,3.69-3,3.22-2.06,6.57,2.17,7.92,1.78.57,5.22,6,4.49,7.49-.84,1.7-2.42,2-3.76.55a11,11,0,0,1-1.58-3.11C485.75,75.34,484.1,74.28,479.54,74.34Z" transform="translate(2.42 34.47)"/>
    <path d="M260.36,34.2c-1.26-20.06-.52-39.9-.78-60.65a5.22,5.22,0,0,1,2.19,4.8q.12,27.15.12,54.32C261.89,33.16,262,33.74,260.36,34.2Z" transform="translate(2.42 34.47)"/>
    <path d="M405.48,43.52c-1.74,4.23-1.71,8.67-2.05,13a4.91,4.91,0,0,1-1.62,3c-1.07,1.09-2.13.84-2-.64.33-4.88-2.51-8.65-4.3-12.74-.94-2.14.33-3,1.44-3.87,1.72-1.4,3.25-3.79,6-2.42A4.09,4.09,0,0,1,405.48,43.52Z" transform="translate(2.42 34.47)"/>
    <path d="M534.8,88.35c-2.66-3.36-5.85-3.72-9.14-3.23s-4.57-1.36-5.12-4,1.5-3.43,3.58-4.11C532.41,74.32,536.18,78,534.8,88.35Z" transform="translate(2.42 34.47)"/>
    <path d="M458.91,78.92c2.72,1.15,6.24.91,9.18,2.91a3.12,3.12,0,0,1,1.15,4.38c-1,2.26-2.1-.06-3.11-.24-3.29-.6-6.14-1.66-9.12,1.78-2.3,2.67-4.09-1.32-5.79-2.57a2.48,2.48,0,0,1,.58-4.24A17.63,17.63,0,0,1,458.91,78.92Z" transform="translate(2.42 34.47)"/>
    <path d="M682.34-34.1h13.33a40.4,40.4,0,0,0-1,4.55c-.48,4.87-2.46,6.27-7.34,5.21-1.45-.32-1.77-1.19-2-2.45C684.58-31.14,684.54-31.14,682.34-34.1Z" transform="translate(2.42 34.47)"/>
    <path d="M410.59,85.88c-2-5-1.21-11.51-7.42-14.47a1.83,1.83,0,0,1-.43-3c1.51-1.61,3.66-.88,5.53-1a2.51,2.51,0,0,1,2.61,2.42,69.46,69.46,0,0,0,3.17,14.38,2.67,2.67,0,0,1-1,3.15c-1.52.91-1.74-1-2.58-1.62Z" transform="translate(2.42 34.47)"/>
    <path d="M96.78-31.57q.66,48.33,1.3,96.67C97.43,32.89,95.77.7,96.78-31.57Z" transform="translate(2.42 34.47)"/>
    <path d="M459.88,65.66c-2.29-.9-4.6-1.71-6.84-2.7-3.46-1.52-4-4.52-3.56-7.8.29-2.38,1.87-3.1,3.37-1.27,2.87,3.5,4.81,7.67,8,11Z" transform="translate(2.42 34.47)"/>
    <path d="M840.63,218.93c3.25.53,6,.5,8.12,3,1.41,1.69.72,2.11-.84,2.54C844.23,225.5,842.6,224.35,840.63,218.93Z" transform="translate(2.42 34.47)"/>
    <path d="M466.31,106.17c-1.81-.43-2.12-2.2-3.09-3.33s-1.77-2.44-.52-3.44a4.27,4.27,0,0,1,4.41-.21c1.35.66,1.31,2.08.7,3.42C467.28,103.76,466.82,104.94,466.31,106.17Z" transform="translate(2.42 34.47)"/>
    <path d="M569.48,86a6.47,6.47,0,0,1,2.17.37,8.18,8.18,0,0,1,2.58,2.16c.19.25-.49,1.46-1,1.88-1.26,1-2.09-.3-3-.85-.56-.33-1.08-.71-1.64-1s-1.62-.66-1.42-1.59C567.36,85.7,568.52,86.12,569.48,86Z" transform="translate(2.42 34.47)"/>
    <path d="M545,76.07c.7-1.71.55-3.69,2.52-3.82s3.54,1.11,5,3.32Z" transform="translate(2.42 34.47)"/>
    <path d="M410,41c1.26.49,3.09,0,3.37,2,.13.93-.56,2.06-1.51,1.73a7.24,7.24,0,0,1-3.62-2.41C407.65,41.41,409.08,41.07,410,41Z" transform="translate(2.42 34.47)"/>
    <path d="M518.82,90.88c-2.63,1.9-4.74,2.3-7.28.86C513.78,89.66,516,89.56,518.82,90.88Z" transform="translate(2.42 34.47)"/>
    <path d="M506.09,109.39c-.22,2.43,0,4.33-2,5.17-.71.3-1.44-.54-1.6-1.36C501.93,110.48,504.35,110.79,506.09,109.39Z" transform="translate(2.42 34.47)"/>
    <path d="M547.19,88.1c-1.38-.41-1.51-1.51-1.57-2.52a1.43,1.43,0,0,1,1.7-1.61,1.29,1.29,0,0,1,1.21,1.64C548.39,86.58,548.25,87.66,547.19,88.1Z" transform="translate(2.42 34.47)"/>
    <path d="M929.51,70.75c2.33-1.42,3.77-2.41,5.63-1.36a1.06,1.06,0,0,1,.15,1C933.73,71.69,932.09,71.07,929.51,70.75Z" transform="translate(2.42 34.47)"/>
    <path d="M98.06,86.36V74.78h.09V86.36Z" transform="translate(2.42 34.47)"/>
    <path d="M324.56,435.15c-1.9,6.12-1.64,14.28-9.6,18.73-3.07,1.71-5,5-6.9,7.87a19.28,19.28,0,0,1-12.18,8.39c-7.47,1.85-13.54,5.64-17.91,12.12-2.51,3.74-11,3.13-13-.78-.76-1.52.21-2.49,1.2-3.36,4.5-3.94,7.34-9,9.7-14.39a8.85,8.85,0,0,1,1.87-2.91,109.26,109.26,0,0,0,11.72-14c1.61-2.22,4.2-3.86,6.62-5.32,7-4.22,13.64-9,21.33-12C322,427.69,324.53,429.12,324.56,435.15Z" transform="translate(2.42 34.47)"/>
    <path d="M701.76,151.77c.23,1.9-.58,2.33-1.24,2.55-7.6,2.55-9,8.78-9.57,15.65-.24,2.63-2.53,4.22-4.65,5.34-1.37.74-2.52-.87-2.56-2.11-.12-3.32-1.13-7.71.55-9.72,2.25-2.7,4.19-6.24,7.63-7.85C695,154.19,698.29,153.11,701.76,151.77Z" transform="translate(2.42 34.47)"/>
    <path d="M609.4,313.62c2.07.08,4.16-.05,6.15.73.61.24,1.33.49,1.3,1.24s-.8.91-1.4,1.13c-5.17,1.87-10.44,1.72-15.75.73-.64-.12-1.35-.28-1.26-1.13s.79-1,1.4-1.18A28.77,28.77,0,0,1,609.4,313.62Z" transform="translate(2.42 34.47)"/>
    <path d="M648.51,216.74c2.41,4.4,1.46,10.59-2.24,14.53-3.87-6.94-3.14-11.4,2.35-14.44Z" transform="translate(2.42 34.47)"/><path d="M648.62,216.83c-.53-2.34,1.76-8.69,3.54-9.59,1.33-.67,2.49-.36,2.2,1.33-.24,1.39.75,3.27-1.26,4.14s-.41,2.52-.73,3.77c-1.39.2-2.69-.55-3.86.25A1,1,0,0,0,648.62,216.83Z" transform="translate(2.42 34.47)"/>
    <path d="M606.54,233c-1.53-.24-2.94-.45-2.52-2.31.33-1.52.93-3.4,2.85-2.95s5.31,1.24,5.11,3.16C611.72,233.28,608.19,231.87,606.54,233Z" transform="translate(2.42 34.47)"/>
    <path d="M659.32,206.09a8.38,8.38,0,0,1,7.75-10Z" transform="translate(2.42 34.47)"/>
    <path d="M227.64,120.66c-3.46-5.29-5.85-11.74-14-11.27C220.64,106.68,226.22,111.2,227.64,120.66Z" transform="translate(2.42 34.47)"/>
    <path d="M234.12,138c-5.25.55-4.06-2.85-4-6.38C232,133.9,231.61,136.85,234.12,138Z" transform="translate(2.42 34.47)"/>
  </g>
</svg>
